<?xml version="1.0" encoding="utf-8"?>
<!-- Generator: Adobe Illustrator 26.0.1, SVG Export Plug-In . SVG Version: 6.00 Build 0)  -->
<svg version="1.1" id="Layer_1" xmlns="http://www.w3.org/2000/svg" xmlns:xlink="http://www.w3.org/1999/xlink" x="0px" y="0px"
	 viewBox="0 0 241 229.5" style="enable-background:new 0 0 241 229.5;" xml:space="preserve">
<style type="text/css">
	.st0{fill:url(#SVGID_1_);}
	.st1{opacity:0.6;fill:url(#SVGID_00000159445661077122956140000006937332935573565886_);enable-background:new    ;}
	.st2{opacity:0.3;fill:url(#SVGID_00000129906804109173089970000006474374396350461352_);enable-background:new    ;}
	.st3{fill:url(#SVGID_00000119839875076075034320000010860639545669728904_);}
	.st4{fill:url(#SVGID_00000046326090067691218310000018157575308447698096_);}
	.st5{opacity:0.5;fill:url(#SVGID_00000125601733241950579880000011515695317611490491_);enable-background:new    ;}
	.st6{opacity:0.1;fill:url(#SVGID_00000155131121784113169440000006374694316829036190_);enable-background:new    ;}
	.st7{opacity:0.9;fill:url(#SVGID_00000097471455994509299150000005086363127586735008_);enable-background:new    ;}
	.st8{fill:url(#SVGID_00000092422931097263149060000008238119156092979346_);}
	.st9{opacity:0.3;fill:url(#SVGID_00000070107664341194870490000016040020663378039170_);enable-background:new    ;}
	.st10{opacity:0.9;fill:url(#SVGID_00000173839336537371758000000003713179112343761082_);enable-background:new    ;}
	.st11{fill:url(#SVGID_00000081619193496878116010000004120087009804829593_);}
	.st12{fill:url(#SVGID_00000031180118514136553680000009785701382048169404_);}
	.st13{fill:url(#SVGID_00000154406307903123481030000016062544300234579378_);}
	.st14{fill:url(#SVGID_00000070829772710983624310000012843059811903797159_);}
	.st15{opacity:0.4;fill:url(#SVGID_00000110465099174962413470000015618124585373423257_);enable-background:new    ;}
	.st16{fill:url(#SVGID_00000011745280797014042100000005718680313619042200_);}
	.st17{fill:#EF549B;}
	.st18{opacity:0.6;fill:url(#SVGID_00000007426050380783852980000000508803320182133380_);enable-background:new    ;}
	.st19{fill:url(#SVGID_00000062874742930064447020000001244116666132631686_);}
	.st20{fill:url(#SVGID_00000101087884923476137980000005012510882342838441_);}
	.st21{fill:url(#SVGID_00000078028084452843603920000012470097756983788933_);}
	.st22{opacity:0.1;fill:url(#SVGID_00000163786314991809424710000007664177237919606963_);enable-background:new    ;}
	.st23{opacity:0.7;fill:url(#SVGID_00000029012581043188152410000008527511631934931887_);enable-background:new    ;}
	.st24{fill:url(#SVGID_00000055666926161679740210000013782957582117259401_);}
	.st25{fill:url(#SVGID_00000083081676597019082740000004051020972679529091_);}
	.st26{fill:url(#SVGID_00000116928677224968071280000004266826129751525550_);}
	.st27{fill:url(#SVGID_00000068638994285968871640000004669567866352797114_);}
	.st28{opacity:0.7;fill:url(#SVGID_00000048503013778009867410000008847908761925202584_);enable-background:new    ;}
	.st29{opacity:0.4;fill:url(#SVGID_00000089556663078539491520000008578656047439384228_);enable-background:new    ;}
	.st30{fill:url(#SVGID_00000120534480938210532640000006606482546096454830_);}
	.st31{opacity:0.8;fill:url(#SVGID_00000120547860991675701950000014960475795313789824_);enable-background:new    ;}
	.st32{opacity:0.7;fill:url(#SVGID_00000059291145850689999820000000268582281439359925_);enable-background:new    ;}
	.st33{fill:url(#SVGID_00000064325848403508909600000004227865056845696426_);}
	.st34{fill:url(#SVGID_00000047740322146186077430000005918410759294989996_);}
	.st35{opacity:0.4;fill:url(#SVGID_00000011719168311178322170000016591663957216854965_);enable-background:new    ;}
	.st36{opacity:0.4;fill:url(#SVGID_00000076590721562236074320000013972168988805200283_);enable-background:new    ;}
</style>
<g id="_x34__1_">
	<g id="_x34_">
		
			<linearGradient id="SVGID_1_" gradientUnits="userSpaceOnUse" x1="28.274" y1="119.7478" x2="223.5" y2="119.7478" gradientTransform="matrix(1 0 0 -1 0 229.3228)">
			<stop  offset="0" style="stop-color:#EF5FA2"/>
			<stop  offset="0.5814" style="stop-color:#EE4791"/>
			<stop  offset="1" style="stop-color:#EE3B8A"/>
		</linearGradient>
		<path class="st0" d="M223.4,187.2c-23.2-92.8-96.4-167-97.1-167.8c-0.2-0.2-0.6-0.2-0.8,0c-0.7,0.7-74,75-97.2,167.9
			c-0.1,0.3,0.1,0.6,0.4,0.7c0.5,0.1,45.7,11.9,102.7,11.9l0,0c33.4,0,64.3-4,91.7-11.9l0.1-0.1c0,0,0.1,0,0.1-0.1c0,0,0,0,0.1-0.1
			l0.1-0.1C223.5,187.6,223.5,187.4,223.4,187.2z"/>
		
			<linearGradient id="SVGID_00000134955934626520912330000017830209069690270109_" gradientUnits="userSpaceOnUse" x1="149.18" y1="155.2344" x2="178.7854" y2="121.9636" gradientTransform="matrix(1 0 0 -1 0 229.3228)">
			<stop  offset="0" style="stop-color:#EE3B8A"/>
			<stop  offset="1" style="stop-color:#961B4C"/>
		</linearGradient>
		<path style="opacity:0.6;fill:url(#SVGID_00000134955934626520912330000017830209069690270109_);enable-background:new    ;" d="
			M183.5,127.7l2.3-27.5l0.6,1c5.5,9.3,10.5,18.8,15,28.2l0.4,0.8L183.5,127.7z"/>
		
			<linearGradient id="SVGID_00000134955810898197185260000007416995822091296951_" gradientUnits="userSpaceOnUse" x1="162.0547" y1="127.7412" x2="180.9446" y2="98.4194" gradientTransform="matrix(1 0 0 -1 0 229.3228)">
			<stop  offset="0" style="stop-color:#EE3B8A"/>
			<stop  offset="1" style="stop-color:#961B4C"/>
		</linearGradient>
		
			<polygon style="opacity:0.3;fill:url(#SVGID_00000134955810898197185260000007416995822091296951_);enable-background:new    ;" points="
			180.9,163.5 183.5,127.9 201.6,130.3 		"/>
		
			<linearGradient id="SVGID_00000062893729868766870050000009608080148479209882_" gradientUnits="userSpaceOnUse" x1="170.2887" y1="90.027" x2="224.9824" y2="114.8365" gradientTransform="matrix(1 0 0 -1 0 229.3228)">
			<stop  offset="0" style="stop-color:#EF5FA2"/>
			<stop  offset="0.5814" style="stop-color:#EE4791"/>
			<stop  offset="1" style="stop-color:#EE3B8A"/>
		</linearGradient>
		<path style="fill:url(#SVGID_00000062893729868766870050000009608080148479209882_);" d="M160.2,115.1l23,12.9l-2.4,35.3
			C180.8,163.2,174.1,139.4,160.2,115.1z"/>
		
			<linearGradient id="SVGID_00000086672494372256026430000012542234913607916422_" gradientUnits="userSpaceOnUse" x1="155.5942" y1="145.3881" x2="241.5915" y2="28.3751" gradientTransform="matrix(1 0 0 -1 0 229.3228)">
			<stop  offset="0" style="stop-color:#FDEFF5"/>
			<stop  offset="1" style="stop-color:#F0649C"/>
		</linearGradient>
		<polygon style="fill:url(#SVGID_00000086672494372256026430000012542234913607916422_);" points="160.3,114.9 154.3,82.2 
			185.6,100.2 183.3,127.7 		"/>
		
			<linearGradient id="SVGID_00000140730700603789282000000011799611443925769880_" gradientUnits="userSpaceOnUse" x1="139.5774" y1="156.2585" x2="151.2315" y2="86.3339" gradientTransform="matrix(1 0 0 -1 0 229.3228)">
			<stop  offset="0" style="stop-color:#FDEFF5"/>
			<stop  offset="1" style="stop-color:#F0649C"/>
		</linearGradient>
		<path style="opacity:0.5;fill:url(#SVGID_00000140730700603789282000000011799611443925769880_);enable-background:new    ;" d="
			M126,69.2L154,82l-11.7,6.3C142.2,88.3,132.6,75.6,126,69.2z"/>
		
			<linearGradient id="SVGID_00000035532271640828390260000015143624111265261995_" gradientUnits="userSpaceOnUse" x1="125.8" y1="156.5728" x2="161.1" y2="156.5728" gradientTransform="matrix(1 0 0 -1 0 229.3228)">
			<stop  offset="0" style="stop-color:#FDEFF5"/>
			<stop  offset="1" style="stop-color:#F0649C"/>
		</linearGradient>
		
			<polygon style="opacity:0.1;fill:url(#SVGID_00000035532271640828390260000015143624111265261995_);enable-background:new    ;" points="
			125.8,69 161.1,63.7 154.1,81.8 		"/>
		
			<linearGradient id="SVGID_00000072978403119159924650000018057527855289484944_" gradientUnits="userSpaceOnUse" x1="151.4789" y1="128.4552" x2="203.9212" y2="151.011" gradientTransform="matrix(1 0 0 -1 0 229.3228)">
			<stop  offset="0" style="stop-color:#EF5FA2"/>
			<stop  offset="0.5814" style="stop-color:#EE4791"/>
			<stop  offset="1" style="stop-color:#EE3B8A"/>
		</linearGradient>
		<path style="opacity:0.9;fill:url(#SVGID_00000072978403119159924650000018057527855289484944_);enable-background:new    ;" d="
			M160.1,114.8c-6.3-11.2-17.8-26.3-17.8-26.3l11.8-6.4L160.1,114.8z"/>
		
			<linearGradient id="SVGID_00000036937928814132562120000010919170991527228818_" gradientUnits="userSpaceOnUse" x1="154.3" y1="147.7228" x2="185.6554" y2="147.7228" gradientTransform="matrix(1 0 0 -1 0 229.3228)">
			<stop  offset="0" style="stop-color:#EF5FA2"/>
			<stop  offset="0.5814" style="stop-color:#EE4791"/>
			<stop  offset="1" style="stop-color:#EE3B8A"/>
		</linearGradient>
		<path style="fill:url(#SVGID_00000036937928814132562120000010919170991527228818_);" d="M154.3,81.9l7.2-18.7l0.5,0.7
			c8.3,11.4,16,23.2,23,35l0.7,1.1L154.3,81.9z"/>
		
			<linearGradient id="SVGID_00000142898965960572733850000003360966907820575894_" gradientUnits="userSpaceOnUse" x1="118.2899" y1="246.4418" x2="134.4551" y2="193.8109" gradientTransform="matrix(1 0 0 -1 0 229.3228)">
			<stop  offset="0" style="stop-color:#EF5FA2"/>
			<stop  offset="0.5814" style="stop-color:#EE4791"/>
			<stop  offset="1" style="stop-color:#EE3B8A"/>
		</linearGradient>
		<path style="opacity:0.3;fill:url(#SVGID_00000142898965960572733850000003360966907820575894_);enable-background:new    ;" d="
			M126,20.1l0.8,0.8c3.9,4.1,17.9,19.1,34.5,41.9l0.4,0.6L126,68.8V20.1z"/>
		
			<linearGradient id="SVGID_00000149376501252523477760000017254287637739734929_" gradientUnits="userSpaceOnUse" x1="86.5197" y1="135.9938" x2="177.1195" y2="-8.7404" gradientTransform="matrix(1 0 0 -1 0 229.3228)">
			<stop  offset="0" style="stop-color:#FDEFF5"/>
			<stop  offset="1" style="stop-color:#F0649C"/>
		</linearGradient>
		<path style="opacity:0.9;fill:url(#SVGID_00000149376501252523477760000017254287637739734929_);enable-background:new    ;" d="
			M129,170.8c-29.4,0-53.2-5.5-57.6-6.6l-0.4-0.1l0.1-0.4c5.3-21.1,16.1-41.2,26.8-57.5c14.5-22,27.9-37,27.9-37
			c10.3,10.9,25.8,31.4,34,45.9c14.4,25.6,21.1,48.6,21.1,48.6S161.7,170.5,129,170.8L129,170.8z"/>
		
			<linearGradient id="SVGID_00000108270518952445224770000011788116441356706443_" gradientUnits="userSpaceOnUse" x1="90.2691" y1="138.3396" x2="180.8666" y2="-6.3908" gradientTransform="matrix(1 0 0 -1 0 229.3228)">
			<stop  offset="0" style="stop-color:#FDEFF5"/>
			<stop  offset="1" style="stop-color:#F0649C"/>
		</linearGradient>
		<path style="fill:url(#SVGID_00000108270518952445224770000011788116441356706443_);" d="M139.9,85.9c-2.5-3.3-5.1-6.4-7.5-9.3
			l-42.8,42.8c-5.6,9.7-10.7,20.3-14.7,31.4L139.9,85.9z"/>
		
			<linearGradient id="SVGID_00000012470661958219310860000014946645047179412869_" gradientUnits="userSpaceOnUse" x1="86.5446" y1="136.0063" x2="177.1421" y2="-8.724" gradientTransform="matrix(1 0 0 -1 0 229.3228)">
			<stop  offset="0" style="stop-color:#FDEFF5"/>
			<stop  offset="1" style="stop-color:#F0649C"/>
		</linearGradient>
		<path style="fill:url(#SVGID_00000012470661958219310860000014946645047179412869_);" d="M154.2,106.1c-3.1-4.8-6.6-9.8-10.3-14.7
			c-24.2,24.2-48.5,48.5-72.7,72.7h0.1c2.3,0.6,10,2.4,21,3.9L154.2,106.1z"/>
		
			<linearGradient id="SVGID_00000169554086161120408680000002597197382378615168_" gradientUnits="userSpaceOnUse" x1="95.944" y1="141.8978" x2="186.5497" y2="-2.8457" gradientTransform="matrix(1 0 0 -1 0 229.3228)">
			<stop  offset="0" style="stop-color:#FDEFF5"/>
			<stop  offset="1" style="stop-color:#F0649C"/>
		</linearGradient>
		<path style="fill:url(#SVGID_00000169554086161120408680000002597197382378615168_);" d="M164.2,123.6c-1.4-2.8-2.9-5.6-4.6-8.5
			c-0.6-1-1.1-2-1.8-3c-19,19-38.1,38.1-57.1,57.1c5.1,0.6,10.7,1,16.6,1.3L164.2,123.6z"/>
		
			<linearGradient id="SVGID_00000090253475064110679750000011835331562965924267_" gradientUnits="userSpaceOnUse" x1="104.4097" y1="147.1911" x2="195.0095" y2="2.457" gradientTransform="matrix(1 0 0 -1 0 229.3228)">
			<stop  offset="0" style="stop-color:#FDEFF5"/>
			<stop  offset="1" style="stop-color:#F0649C"/>
		</linearGradient>
		<path style="fill:url(#SVGID_00000090253475064110679750000011835331562965924267_);" d="M129,170.8c8.4-0.1,15.9-0.6,22.4-1.3
			l23.2-23.2c-1.9-4.8-4.3-10.4-7.2-16.4c-13.6,13.6-27.2,27.2-40.7,40.7C127.4,170.7,128.2,170.8,129,170.8L129,170.8z"/>
		
			<linearGradient id="SVGID_00000049179400013536508400000011052548593826031249_" gradientUnits="userSpaceOnUse" x1="157.9468" y1="90.7231" x2="165.0895" y2="66.0997" gradientTransform="matrix(1 0 0 -1 0 229.3228)">
			<stop  offset="0" style="stop-color:#EE3B8A"/>
			<stop  offset="1" style="stop-color:#961B4C"/>
		</linearGradient>
		<path style="opacity:0.4;fill:url(#SVGID_00000049179400013536508400000011052548593826031249_);enable-background:new    ;" d="
			M154.2,169.5l0.4-0.1c7.5-1,19.2-3.2,25.5-5.3l-3.6,2.2L155.2,180L154.2,169.5z"/>
		
			<linearGradient id="SVGID_00000070807704198633517820000004866257462643462545_" gradientUnits="userSpaceOnUse" x1="139.4105" y1="50.6798" x2="115.9178" y2="-9.8372" gradientTransform="matrix(1 0 0 -1 0 229.3228)">
			<stop  offset="0" style="stop-color:#EF5FA2"/>
			<stop  offset="0.5814" style="stop-color:#EE4791"/>
			<stop  offset="1" style="stop-color:#EE3B8A"/>
		</linearGradient>
		<path style="fill:url(#SVGID_00000070807704198633517820000004866257462643462545_);" d="M126.3,171c8.1,0,19.5-0.5,27.3-1.4
			l0.5-0.1l0.9,10.4L126.3,171z"/>
		<path class="st17" d="M97.3,169.1c8.2,1,19.9,1.6,27.8,1.8l-28.8,9L97.3,169.1z"/>
		
			<linearGradient id="SVGID_00000026145152863496390100000018387034066656885667_" gradientUnits="userSpaceOnUse" x1="91.2682" y1="73.748" x2="74.0728" y2="35.9746" gradientTransform="matrix(1 0 0 -1 0 229.3228)">
			<stop  offset="0" style="stop-color:#EE3B8A"/>
			<stop  offset="1" style="stop-color:#961B4C"/>
		</linearGradient>
		<path style="opacity:0.6;fill:url(#SVGID_00000026145152863496390100000018387034066656885667_);enable-background:new    ;" d="
			M71.2,164.3c0,0,14.3,3.5,26,4.8l-1,11L71.2,164.3z"/>
		
			<linearGradient id="SVGID_00000116234430297487909870000014399585472489933704_" gradientUnits="userSpaceOnUse" x1="52.1392" y1="117.6563" x2="95.2778" y2="76.7733" gradientTransform="matrix(1 0 0 -1 0 229.3228)">
			<stop  offset="0" style="stop-color:#EF5FA2"/>
			<stop  offset="0.5814" style="stop-color:#EE4791"/>
			<stop  offset="1" style="stop-color:#EE3B8A"/>
		</linearGradient>
		<path style="fill:url(#SVGID_00000116234430297487909870000014399585472489933704_);" d="M70.7,163.9l-2.6-36L92,114.8
			c-9.7,15.8-16.3,31.1-20.4,46L70.7,163.9z"/>
		
			<linearGradient id="SVGID_00000025409074054653949040000011737550217372991665_" gradientUnits="userSpaceOnUse" x1="106.5196" y1="168.0418" x2="128.7926" y2="83.179" gradientTransform="matrix(1 0 0 -1 0 229.3228)">
			<stop  offset="0" style="stop-color:#FDEFF5"/>
			<stop  offset="1" style="stop-color:#F0649C"/>
		</linearGradient>
		<polygon style="fill:url(#SVGID_00000025409074054653949040000011737550217372991665_);" points="90.2,63.7 125.5,69 97.2,81.8 		
			"/>
		
			<linearGradient id="SVGID_00000123422156015306913650000003529518170773373346_" gradientUnits="userSpaceOnUse" x1="106.1281" y1="159.8463" x2="151.0538" y2="108.1536" gradientTransform="matrix(1 0 0 -1 0 229.3228)">
			<stop  offset="0" style="stop-color:#EF5FA2"/>
			<stop  offset="1" style="stop-color:#EE3B8A"/>
		</linearGradient>
		<path style="fill:url(#SVGID_00000123422156015306913650000003529518170773373346_);" d="M97.4,82l28.1-12.8
			c-6.9,7.3-15.8,19.4-15.8,19.4L97.4,82z"/>
		
			<linearGradient id="SVGID_00000059999502005376716800000008487337481542658947_" gradientUnits="userSpaceOnUse" x1="86.8847" y1="136.814" x2="153.232" y2="92.8331" gradientTransform="matrix(1 0 0 -1 0 229.3228)">
			<stop  offset="0" style="stop-color:#FDEFF5"/>
			<stop  offset="1" style="stop-color:#F0649C"/>
		</linearGradient>
		<path style="opacity:0.1;fill:url(#SVGID_00000059999502005376716800000008487337481542658947_);enable-background:new    ;" d="
			M97.2,82.1l12.3,6.7c0,0-12.5,17.4-17.5,25.8L97.2,82.1z"/>
		
			<linearGradient id="SVGID_00000031920389245289690220000010285365106039441594_" gradientUnits="userSpaceOnUse" x1="98.7163" y1="200.6607" x2="179.9143" y2="84.5025" gradientTransform="matrix(1 0 0 -1 0 229.3228)">
			<stop  offset="0" style="stop-color:#FDEFF5"/>
			<stop  offset="1" style="stop-color:#F0649C"/>
		</linearGradient>
		<path style="opacity:0.7;fill:url(#SVGID_00000031920389245289690220000010285365106039441594_);enable-background:new    ;" d="
			M90,63.5l0.4-0.6C107.1,40,121.1,25,125,20.9l0.8-0.8v48.7L90,63.5z"/>
		
			<linearGradient id="SVGID_00000019659245693162390370000002445094837978900134_" gradientUnits="userSpaceOnUse" x1="56.8403" y1="171.7733" x2="88.2331" y2="135.8691" gradientTransform="matrix(1 0 0 -1 0 229.3228)">
			<stop  offset="0" style="stop-color:#EF5FA2"/>
			<stop  offset="0.5814" style="stop-color:#EE4791"/>
			<stop  offset="1" style="stop-color:#EE3B8A"/>
		</linearGradient>
		<path style="fill:url(#SVGID_00000019659245693162390370000002445094837978900134_);" d="M66.9,98.5C73.7,87,81.3,75.4,89.5,64.2
			l0.5-0.7l7,18.4L66,100L66.9,98.5z"/>
		
			<linearGradient id="SVGID_00000070119284589725665840000015738207469306342292_" gradientUnits="userSpaceOnUse" x1="35.8256" y1="170.5399" x2="113.6459" y2="93.5655" gradientTransform="matrix(1 0 0 -1 0 229.3228)">
			<stop  offset="0" style="stop-color:#FDEFF5"/>
			<stop  offset="1" style="stop-color:#F0649C"/>
		</linearGradient>
		<polygon style="fill:url(#SVGID_00000070119284589725665840000015738207469306342292_);" points="65.9,100.3 97,82.2 91.8,114.5 
			68,127.7 		"/>
		
			<linearGradient id="SVGID_00000176727956603042264500000011700936468434185617_" gradientUnits="userSpaceOnUse" x1="48.0911" y1="127.8927" x2="75.7232" y2="88.4183" gradientTransform="matrix(1 0 0 -1 0 229.3228)">
			<stop  offset="0" style="stop-color:#EF5FA2"/>
			<stop  offset="0.5814" style="stop-color:#EE4791"/>
			<stop  offset="1" style="stop-color:#EE3B8A"/>
		</linearGradient>
		<path style="fill:url(#SVGID_00000176727956603042264500000011700936468434185617_);" d="M50.3,129.3c4.4-9.2,9.3-18.5,14.6-27.6
			l0.7-1.2l2.1,27.1L50,130.1L50.3,129.3z"/>
		
			<linearGradient id="SVGID_00000141437807180806442530000015737323706528403629_" gradientUnits="userSpaceOnUse" x1="57.9226" y1="80.4331" x2="111.7726" y2="124.6972" gradientTransform="matrix(1 0 0 -1 0 229.3228)">
			<stop  offset="0" style="stop-color:#EF5FA2"/>
			<stop  offset="1" style="stop-color:#EE3B8A"/>
		</linearGradient>
		<polygon style="fill:url(#SVGID_00000141437807180806442530000015737323706528403629_);" points="49.7,130.3 67.8,127.9 
			70.5,163.9 		"/>
		
			<linearGradient id="SVGID_00000003802257035293900000000008627813067762043272_" gradientUnits="userSpaceOnUse" x1="70.1194" y1="81.5725" x2="180.9267" y2="121.6099" gradientTransform="matrix(1 0 0 -1 0 229.3228)">
			<stop  offset="0" style="stop-color:#EE3B8A"/>
			<stop  offset="1" style="stop-color:#961B4C"/>
		</linearGradient>
		<path style="opacity:0.7;fill:url(#SVGID_00000003802257035293900000000008627813067762043272_);enable-background:new    ;" d="
			M29.3,186c4.6-17.8,11.3-36.2,20-54.6l0.4-0.7l20.6,33.2L29.1,187L29.3,186z"/>
		
			<linearGradient id="SVGID_00000081615906825938419270000003674519371425002671_" gradientUnits="userSpaceOnUse" x1="43.6274" y1="109.7795" x2="50.6763" y2="68.332" gradientTransform="matrix(1 0 0 -1 0 229.3228)">
			<stop  offset="0" style="stop-color:#EE3B8A"/>
			<stop  offset="1" style="stop-color:#961B4C"/>
		</linearGradient>
		<path style="opacity:0.4;fill:url(#SVGID_00000081615906825938419270000003674519371425002671_);enable-background:new    ;" d="
			M82.2,196.6c-28.2-3.1-48.5-7.9-52.2-8.9l-1.1-0.3l41.5-23.2L83,196.6H82.2z"/>
		
			<linearGradient id="SVGID_00000081624218284781233460000011360223043817421713_" gradientUnits="userSpaceOnUse" x1="70.7" y1="49.1728" x2="96.0598" y2="49.1728" gradientTransform="matrix(1 0 0 -1 0 229.3228)">
			<stop  offset="0" style="stop-color:#EF5FA2"/>
			<stop  offset="0.5814" style="stop-color:#EE4791"/>
			<stop  offset="1" style="stop-color:#EE3B8A"/>
		</linearGradient>
		<polygon style="fill:url(#SVGID_00000081624218284781233460000011360223043817421713_);" points="70.7,164.2 96.1,180.3 83,196.1 
					"/>
		
			<linearGradient id="SVGID_00000101094069700359414670000004169595108853520053_" gradientUnits="userSpaceOnUse" x1="105.1632" y1="70.1762" x2="103.8476" y2="24.3156" gradientTransform="matrix(1 0 0 -1 0 229.3228)">
			<stop  offset="0" style="stop-color:#EE3B8A"/>
			<stop  offset="1" style="stop-color:#961B4C"/>
		</linearGradient>
		<path style="opacity:0.8;fill:url(#SVGID_00000101094069700359414670000004169595108853520053_);enable-background:new    ;" d="
			M123.8,199.3c-12.6-0.2-26.1-1.1-40.2-2.6l-0.8-0.1l13.4-16.3l29.1,19L123.8,199.3z"/>
		
			<linearGradient id="SVGID_00000005957676558203544980000018387424805726093237_" gradientUnits="userSpaceOnUse" x1="124.9512" y1="59.3481" x2="128.7105" y2="-17.3398" gradientTransform="matrix(1 0 0 -1 0 229.3228)">
			<stop  offset="0" style="stop-color:#EE3B8A"/>
			<stop  offset="1" style="stop-color:#961B4C"/>
		</linearGradient>
		<path style="opacity:0.7;fill:url(#SVGID_00000005957676558203544980000018387424805726093237_);enable-background:new    ;" d="
			M125.7,171l-29.3,9.2l29.3,19.1c0.4-0.3,27.7-18.6,28-18.7l0.8-0.5L125.7,171z"/>
		
			<linearGradient id="SVGID_00000099638487248597999120000002360564143363882376_" gradientUnits="userSpaceOnUse" x1="140.7881" y1="73.52" x2="145.1115" y2="44.5724" gradientTransform="matrix(1 0 0 -1 0 229.3228)">
			<stop  offset="0" style="stop-color:#EE3B8A"/>
			<stop  offset="1" style="stop-color:#961B4C"/>
		</linearGradient>
		<path style="fill:url(#SVGID_00000099638487248597999120000002360564143363882376_);" d="M126.1,199.3l28.7-19.3l13.4,17.5
			l-0.8,0.1c-11.6,1.1-23.7,1.6-36,1.6h-3.3L126.1,199.3z"/>
		
			<linearGradient id="SVGID_00000052824523553314443950000002896174726584391578_" gradientUnits="userSpaceOnUse" x1="146.0769" y1="78.6663" x2="184.796" y2="37.8797" gradientTransform="matrix(1 0 0 -1 0 229.3228)">
			<stop  offset="0" style="stop-color:#EF5FA2"/>
			<stop  offset="0.5814" style="stop-color:#EE4791"/>
			<stop  offset="1" style="stop-color:#EE3B8A"/>
		</linearGradient>
		<polygon style="fill:url(#SVGID_00000052824523553314443950000002896174726584391578_);" points="155.2,180.3 180.8,163.9 
			168.3,197.4 		"/>
		
			<linearGradient id="SVGID_00000012463796022915383430000007725460814556579756_" gradientUnits="userSpaceOnUse" x1="160.3389" y1="94.5192" x2="174.4363" y2="71.3994" gradientTransform="matrix(1 0 0 -1 0 229.3228)">
			<stop  offset="0" style="stop-color:#EE3B8A"/>
			<stop  offset="1" style="stop-color:#961B4C"/>
		</linearGradient>
		<path style="opacity:0.4;fill:url(#SVGID_00000012463796022915383430000007725460814556579756_);enable-background:new    ;" d="
			M181,164l41.6,23.5l-1,0.3c-16.2,4.6-33.8,7.8-52.4,9.7l-0.7,0.1L181,164z"/>
		
			<linearGradient id="SVGID_00000158722838697177141470000002964336150747524529_" gradientUnits="userSpaceOnUse" x1="165.725" y1="97.0023" x2="283.0144" y2="29.6174" gradientTransform="matrix(1 0 0 -1 0 229.3228)">
			<stop  offset="0" style="stop-color:#FDEFF5"/>
			<stop  offset="1" style="stop-color:#F0649C"/>
		</linearGradient>
		<path style="opacity:0.4;fill:url(#SVGID_00000158722838697177141470000002964336150747524529_);enable-background:new    ;" d="
			M181,163.8l20.9-33.4l0.4,0.7c8.8,18.6,15.6,37.2,20.2,55.1l0.3,1L181,163.8z"/>
	</g>
</g>
</svg>
