<?xml version="1.0" encoding="UTF-8"?>
<svg id="_Слой_2" data-name="Слой 2" xmlns="http://www.w3.org/2000/svg" viewBox="0 0 102.95 201.51">
  <defs>
    <style>
      .cls-1 {
        fill: #be489a;
      }
    </style>
  </defs>
  <g id="Layer_1" data-name="Layer 1">
    <g>
      <path class="cls-1" d="M50.51,16.42c0,2.75-.46,5.09-1.38,7.01-.92,1.92-2.15,3.56-3.68,4.9-1.54,1.35-3.27,2.44-5.21,3.27-1.93,.83-3.92,1.53-5.95,2.11-2.03,.57-4.02,1.06-5.95,1.46-1.93,.4-3.67,.83-5.21,1.29-1.54,.46-2.77,1-3.68,1.63-.92,.63-1.38,1.43-1.38,2.41H50.51v17.11H0v-17.11c0-2.29,.64-4.07,1.93-5.33,1.29-1.26,2.9-2.25,4.83-2.97s4.03-1.3,6.29-1.76,4.35-1.05,6.29-1.76c1.93-.72,3.54-1.7,4.83-2.97,1.29-1.26,1.93-3.04,1.93-5.33,0-2.52-1.07-3.78-3.2-3.78-1.14,0-2.07,.32-2.79,.95-.72,.63-1.28,1.35-1.67,2.15-.5,.86-.82,1.89-.97,3.1H0V.86H14.73V17.97h1.12c0-6.25,1.45-10.81,4.35-13.67C23.1,1.43,27.7,0,33.99,0c2.93,0,5.43,.44,7.51,1.33,2.08,.89,3.79,2.09,5.13,3.61,1.34,1.52,2.32,3.27,2.94,5.25,.62,1.98,.93,4.06,.93,6.23Z"/>
      <path class="cls-1" d="M102.95,16.42c0,2.75-.46,5.09-1.38,7.01-.92,1.92-2.15,3.56-3.68,4.9-1.54,1.35-3.27,2.44-5.21,3.27-1.93,.83-3.92,1.53-5.95,2.11-2.03,.57-4.02,1.06-5.95,1.46-1.93,.4-3.67,.83-5.21,1.29-1.54,.46-2.77,1-3.68,1.63-.92,.63-1.38,1.43-1.38,2.41h32.43v17.11H52.44v-17.11c0-2.29,.64-4.07,1.93-5.33,1.29-1.26,2.9-2.25,4.83-2.97s4.03-1.3,6.29-1.76,4.35-1.05,6.29-1.76c1.93-.72,3.54-1.7,4.83-2.97,1.29-1.26,1.93-3.04,1.93-5.33,0-2.52-1.07-3.78-3.2-3.78-1.14,0-2.07,.32-2.79,.95-.72,.63-1.28,1.35-1.67,2.15-.5,.86-.82,1.89-.97,3.1h-17.48V.86h14.73V17.97h1.12c0-6.25,1.45-10.81,4.35-13.67,2.9-2.87,7.5-4.3,13.8-4.3,2.93,0,5.43,.44,7.51,1.33,2.08,.89,3.79,2.09,5.13,3.61,1.34,1.52,2.32,3.27,2.94,5.25,.62,1.98,.93,4.06,.93,6.23Z"/>
      <path class="cls-1" d="M30.27,129.95c-3.62,0-7.07-.59-10.34-1.76-3.27-1.17-6.15-2.97-8.63-5.37-2.48-2.41-4.45-5.45-5.91-9.11-1.46-3.67-2.19-7.97-2.19-12.9s.73-9.23,2.19-12.9c1.46-3.67,3.43-6.71,5.91-9.11,2.48-2.41,5.36-4.21,8.63-5.42,3.27-1.2,6.72-1.81,10.34-1.81s6.99,.6,10.26,1.81c3.27,1.2,6.15,3.01,8.63,5.42,2.48,2.41,4.45,5.45,5.91,9.11,1.46,3.67,2.19,7.97,2.19,12.9s-.73,9.23-2.19,12.9c-1.46,3.67-3.43,6.71-5.91,9.11-2.48,2.41-5.36,4.2-8.63,5.37-3.27,1.17-6.69,1.76-10.26,1.76Zm0-41.36c-1.29,0-2.23,1.13-2.83,3.38-.59,2.25-.89,5.2-.89,8.83s.3,6.57,.89,8.79c.6,2.22,1.54,3.33,2.83,3.33s2.17-1.11,2.79-3.33c.62-2.22,.93-5.15,.93-8.79s-.31-6.58-.93-8.83c-.62-2.25-1.55-3.38-2.79-3.38Z"/>
      <path class="cls-1" d="M56.75,72.42h43.29v21.67c-2.48,.92-4.69,2.75-6.62,5.5-.84,1.2-1.66,2.67-2.45,4.39-.79,1.72-1.5,3.78-2.12,6.19-.62,2.41-1.12,5.19-1.49,8.34-.37,3.15-.56,6.74-.56,10.75h-24.4c0-6.32,.68-11.88,2.05-16.67,1.36-4.8,3.27-8.82,5.73-12.07s5.42-5.69,8.89-7.33c3.47-1.64,7.34-2.46,11.6-2.46v-1.29H56.75v-17.03Z"/>
      <path class="cls-1" d="M51.77,159.55c0,2.75-.46,5.09-1.38,7.01-.92,1.92-2.15,3.56-3.68,4.9-1.54,1.35-3.27,2.44-5.21,3.27-1.93,.83-3.92,1.53-5.95,2.11-2.03,.57-4.02,1.06-5.95,1.46-1.93,.4-3.67,.83-5.21,1.29-1.54,.46-2.77,1-3.68,1.63-.92,.63-1.38,1.43-1.38,2.41H51.77v17.11H1.26v-17.11c0-2.29,.64-4.07,1.93-5.33,1.29-1.26,2.9-2.25,4.83-2.97s4.03-1.3,6.29-1.76,4.35-1.05,6.29-1.76c1.93-.72,3.54-1.7,4.83-2.97,1.29-1.26,1.93-3.04,1.93-5.33,0-2.52-1.07-3.78-3.2-3.78-1.14,0-2.07,.32-2.79,.95-.72,.63-1.28,1.35-1.67,2.15-.5,.86-.82,1.89-.97,3.1H1.26v-21.93H15.99v17.11h1.12c0-6.25,1.45-10.8,4.35-13.67,2.9-2.87,7.5-4.3,13.8-4.3,2.93,0,5.43,.45,7.51,1.33,2.08,.89,3.79,2.09,5.13,3.61,1.34,1.52,2.32,3.27,2.94,5.25,.62,1.98,.93,4.06,.93,6.23Z"/>
      <path class="cls-1" d="M79,161.1h-23.58v-17.03h44.26v17.11l-19.79,5.85,.37,1.12c2.68-.74,5.34-1.06,8-.95,2.65,.12,5.03,.76,7.14,1.93,2.11,1.18,3.81,2.91,5.1,5.2,1.29,2.29,1.93,5.19,1.93,8.68,0,5.79-2.03,10.32-6.1,13.59-4.07,3.27-10.44,4.9-19.12,4.9-4.71,0-9.17-.44-13.39-1.33-4.22-.89-7.96-2.42-11.23-4.6l5.36-19.18c1.29,1.03,2.7,1.95,4.24,2.75,1.29,.69,2.76,1.32,4.43,1.89,1.66,.57,3.43,.86,5.32,.86,.89,0,1.77-.1,2.64-.3,.87-.2,1.64-.52,2.31-.95,.67-.43,1.21-.97,1.64-1.63,.42-.66,.63-1.48,.63-2.45,0-1.95-.73-3.34-2.19-4.17-1.46-.83-3.19-1.25-5.17-1.25-1.14,0-2.27,.1-3.38,.3-1.12,.2-2.1,.42-2.94,.65-1.04,.29-2.01,.6-2.9,.95l-1.19-6.36,17.63-4.28v-1.31Z"/>
    </g>
  </g>
</svg>