<?xml version="1.0" encoding="UTF-8"?>
<svg id="_Слой_2" data-name="Слой 2" xmlns="http://www.w3.org/2000/svg" viewBox="0 0 328.38 59.9">
  <defs>
    <style>
      .cls-1 {
        fill: #fff;
      }
    </style>
  </defs>
  <g id="Layer_1" data-name="Layer 1">
    <g>
      <path class="cls-1" d="M0,34.41H6.68L15.9,.73H56.19V34.34h5.15v25.48h-14.38v-11.18H14.38v11.25H0v-25.48Zm33.47-13.72h-1.09l-2.76,13.72h3.77l.07-13.72Z"/>
      <path class="cls-1" d="M101.06,30.13h14.3v18.51h-14.3v-12.85h-1.09c0,2.57-.45,4.72-1.34,6.46-.9,1.74-2.09,3.16-3.59,4.25s-3.25,1.88-5.26,2.36-4.1,.73-6.28,.73c-2.9,0-5.62-.5-8.13-1.49-2.52-.99-4.71-2.48-6.57-4.46-1.86-1.98-3.33-4.46-4.39-7.44-1.07-2.98-1.6-6.45-1.6-10.42s.59-7.54,1.78-10.71c1.19-3.17,2.93-5.87,5.23-8.1,2.3-2.23,5.17-3.94,8.6-5.15,3.44-1.21,7.41-1.82,11.91-1.82,3.63,0,6.93,.29,9.91,.87,2.98,.58,5.5,1.45,7.59,2.61,2.08,1.16,3.69,2.6,4.83,4.32,1.14,1.72,1.71,3.69,1.71,5.92,0,2.9-.68,5.23-2.03,6.97-1.36,1.74-3.07,3.09-5.15,4.03-2.08,.94-4.38,1.56-6.9,1.85-2.52,.29-4.94,.44-7.26,.44h-7.33c.24,2.57,.92,4.61,2.03,6.13,1.11,1.53,2.76,2.29,4.94,2.29,1.5,0,2.78-.27,3.85-.8s1.94-1.14,2.61-1.82c.82-.77,1.48-1.64,1.96-2.61v-.07Zm-8.93-16.19c-2.08,0-3.62,.76-4.61,2.29-.99,1.52-1.61,3.55-1.85,6.06h4.79c1.74,0,3.22-.33,4.43-.98,1.21-.65,1.81-1.73,1.81-3.23,0-1.26-.34-2.26-1.02-3.01-.68-.75-1.86-1.13-3.56-1.13Z"/>
      <path class="cls-1" d="M115.95,.73h46.39V15.17h-12.34V48.64h-21.71V15.17h-12.34V.73Z"/>
      <path class="cls-1" d="M219.77,48.64h-20.69l-1.67-13.14h-1.09c.14,2.18-.12,4.13-.8,5.84-.68,1.72-1.71,3.17-3.09,4.36-1.38,1.19-3.07,2.09-5.08,2.72-2.01,.63-4.25,.94-6.72,.94-5.66,0-10-1.37-13-4.1-3-2.73-4.5-6.45-4.5-11.14,0-2.76,.45-5.24,1.34-7.44,.9-2.2,2.28-4.08,4.14-5.63,1.86-1.55,4.2-2.73,7.01-3.56,2.81-.82,6.12-1.23,9.95-1.23v-1.09h-15.9V.73h38.77l11.33,47.92Zm-29.48-13.72c.87,0,1.58-.23,2.14-.69,.56-.46,.99-.98,1.31-1.56,.31-.58,.52-1.11,.62-1.6,.1-.48,.15-.75,.15-.8l-1.96-14.88c-1.11,.29-2.09,.81-2.94,1.56-.85,.75-1.55,1.65-2.11,2.69-.56,1.04-.97,2.19-1.23,3.45-.27,1.26-.4,2.54-.4,3.85,0,2.86,.46,4.9,1.38,6.13,.92,1.23,1.94,1.85,3.05,1.85Z"/>
      <path class="cls-1" d="M248.73,20.76h-1.09l-3.41,27.88h-24.47l4.86-20.33c.39-1.65,.92-3.21,1.6-4.68,.68-1.48,1.75-2.77,3.23-3.88,1.48-1.11,3.45-2,5.92-2.65s5.66-.98,9.58-.98v-1.09h-20.84V.73h41.09l10.53,47.92h-23.67l-3.34-27.88Z"/>
      <path class="cls-1" d="M309.43,48.64v-13.29l-.07-.07h-1.02c0,4.5-1.27,7.96-3.81,10.38-2.54,2.42-6.18,3.63-10.93,3.63-11.28,0-16.92-6.97-16.92-20.91V.73h22.72V25.7c0,3,.27,5.11,.8,6.32,.53,1.21,1.35,1.82,2.47,1.82,.82,0,1.51-.29,2.07-.87,.56-.58,.98-1.23,1.27-1.96,.34-.87,.58-1.84,.73-2.9V.73h21.64V48.64h-18.95Z"/>
    </g>
  </g>
</svg>