<?xml version="1.0" encoding="UTF-8"?>
<svg id="_Слой_2" data-name="Слой 2" xmlns="http://www.w3.org/2000/svg" viewBox="0 0 272.04 122.17">
  <defs>
    <style>
      .cls-1 {
        fill: #fff;
      }
    </style>
  </defs>
  <g id="Layer_1" data-name="Layer 1">
    <g>
      <path class="cls-1" d="M0,49.01V1.09H19.02V14.38h1.09c0-4.5,1.38-7.96,4.14-10.38C27.01,1.57,31.07,.36,36.45,.36c6.44,0,11.42,1.92,14.96,5.77,3.53,3.85,5.3,9.26,5.3,16.23,0,3.92-.56,7.5-1.67,10.75-1.11,3.24-2.86,6.05-5.23,8.42-2.37,2.37-5.41,4.21-9.11,5.52-3.7,1.31-8.14,1.96-13.32,1.96H0ZM28.39,14.3c-1.16,0-2.17,.3-3.01,.91s-1.54,1.27-2.07,2c-.53,.73-1.06,1.7-1.6,2.9v14.52h3.34c1.55,0,2.88-.28,3.99-.83,1.11-.56,2.03-1.32,2.76-2.29,.73-.97,1.26-2.09,1.6-3.38,.34-1.28,.51-2.67,.51-4.17,0-3.05-.45-5.42-1.34-7.12-.9-1.69-2.29-2.54-4.17-2.54Z"/>
      <path class="cls-1" d="M114.49,49.01h-22.8c-.19-.24-.39-.63-.58-1.16-.15-.44-.27-1-.36-1.71-.1-.7-.15-1.61-.15-2.72v-1.45c0-.77-.08-1.49-.25-2.14-.17-.65-.48-1.21-.94-1.67-.46-.46-1.1-.81-1.92-1.05-.82-.24-1.89-.36-3.2-.36h-3.7v12.27h-21.64V1.09h18.95V14.38h1.09c0-2.32,.44-4.36,1.31-6.1,.87-1.74,2.09-3.19,3.67-4.36,1.57-1.16,3.45-2.03,5.63-2.61,2.18-.58,4.6-.87,7.26-.87,2.95,0,5.47,.35,7.55,1.05,2.08,.7,3.79,1.68,5.12,2.94,1.33,1.26,2.31,2.74,2.94,4.43,.63,1.7,.94,3.56,.94,5.59,0,4.84-1.67,8.48-5.01,10.93-3.34,2.44-8.2,3.67-14.59,3.67v1.09c3.97,0,7.22,.27,9.76,.8,2.54,.53,4.54,1.27,5.99,2.21,1.45,.94,2.46,2.06,3.01,3.34,.56,1.28,.83,2.65,.83,4.1v2.25c0,1.02,.05,1.85,.14,2.5,.1,.65,.22,1.17,.36,1.56,.19,.48,.39,.82,.58,1.02v1.09ZM87.78,14.3c-1.16,0-2.19,.3-3.09,.91s-1.66,1.27-2.29,2c-.73,.87-1.33,1.84-1.82,2.9v2.25h2.25c1.55,0,2.83-.13,3.85-.4,1.02-.27,1.81-.63,2.4-1.09s.98-.98,1.2-1.56,.33-1.16,.33-1.74c0-1.16-.3-2-.91-2.5-.61-.51-1.25-.76-1.92-.76Z"/>
      <path class="cls-1" d="M146.95,33.03c1.98,0,3.91-.24,5.77-.73,1.86-.48,3.54-1.02,5.05-1.6,1.74-.68,3.39-1.45,4.94-2.32l5.23,16.19c-3.39,1.84-7.08,3.23-11.07,4.17-3.99,.94-8.07,1.42-12.23,1.42-5.18,0-9.62-.59-13.32-1.78-3.7-1.19-6.74-2.88-9.11-5.08-2.37-2.2-4.11-4.89-5.23-8.06s-1.67-6.76-1.67-10.78c0-3.44,.59-6.64,1.78-9.62,1.19-2.98,2.93-5.57,5.23-7.77,2.3-2.2,5.17-3.93,8.6-5.19,3.44-1.26,7.41-1.89,11.91-1.89,3.63,0,6.92,.32,9.87,.94,2.95,.63,5.47,1.55,7.55,2.76,2.08,1.21,3.69,2.7,4.83,4.46,1.14,1.77,1.71,3.76,1.71,5.99,0,2.9-.67,5.22-2,6.93-1.33,1.72-3.04,3.05-5.12,3.99-2.08,.94-4.38,1.56-6.9,1.85-2.52,.29-4.94,.44-7.26,.44h-7.26c.24,1.84,1.02,3.24,2.32,4.21,1.31,.97,3.44,1.45,6.39,1.45Zm-2.32-18.73c-2.08,0-3.62,.76-4.61,2.29-.99,1.52-1.61,3.55-1.85,6.06h4.79c1.74,0,3.22-.33,4.43-.98,1.21-.65,1.81-1.73,1.81-3.23,0-1.26-.34-2.26-1.02-3.01-.68-.75-1.86-1.13-3.56-1.13Z"/>
      <path class="cls-1" d="M193.26,16.99c0,1.16,.65,2.07,1.96,2.72s2.94,1.23,4.9,1.74c1.96,.51,4.09,1.05,6.39,1.63s4.43,1.4,6.39,2.47c1.96,1.07,3.59,2.49,4.9,4.28,1.31,1.79,1.96,4.11,1.96,6.97,0,2.28-.45,4.22-1.34,5.84-.9,1.62-2.12,2.95-3.67,3.99-1.55,1.04-3.36,1.8-5.44,2.29-2.08,.48-4.28,.73-6.61,.73-2.86,0-5.4-.28-7.62-.83-2.23-.56-4.1-1.44-5.63-2.65-1.52-1.21-2.69-2.77-3.48-4.68-.8-1.91-1.2-4.22-1.2-6.93h-1.02v14.45h-14.38V30.49h17.06c.48,.48,1.04,.92,1.67,1.31,.53,.34,1.2,.64,2,.91,.8,.27,1.73,.4,2.79,.4,.63,0,1.29-.12,2-.36,.7-.24,1.05-.73,1.05-1.45,0-.97-.65-1.72-1.96-2.25-1.31-.53-2.95-1.04-4.94-1.52-1.99-.48-4.12-1-6.39-1.56-2.28-.56-4.4-1.34-6.39-2.36-1.99-1.02-3.63-2.36-4.94-4.03-1.31-1.67-1.96-3.86-1.96-6.57,0-3.87,1.49-6.93,4.46-9.18,2.98-2.25,7.25-3.38,12.81-3.38,6.05,0,10.51,1.2,13.4,3.59,2.88,2.4,4.32,6.21,4.32,11.43h1.09V1.09h14.3V19.53h-17.06c-.19-.97-.56-1.84-1.09-2.61-.48-.68-1.16-1.28-2.03-1.82-.87-.53-2.03-.8-3.48-.8-1.89,0-2.83,.9-2.83,2.69Z"/>
      <path class="cls-1" d="M245.54,16.99c0,1.16,.65,2.07,1.96,2.72s2.94,1.23,4.9,1.74c1.96,.51,4.09,1.05,6.39,1.63s4.43,1.4,6.39,2.47c1.96,1.07,3.59,2.49,4.9,4.28,1.31,1.79,1.96,4.11,1.96,6.97,0,2.28-.45,4.22-1.34,5.84-.9,1.62-2.12,2.95-3.67,3.99-1.55,1.04-3.36,1.8-5.44,2.29-2.08,.48-4.28,.73-6.61,.73-2.86,0-5.4-.28-7.62-.83-2.23-.56-4.1-1.44-5.63-2.65-1.52-1.21-2.69-2.77-3.48-4.68-.8-1.91-1.2-4.22-1.2-6.93h-1.02v14.45h-14.38V30.49h17.06c.48,.48,1.04,.92,1.67,1.31,.53,.34,1.2,.64,2,.91,.8,.27,1.73,.4,2.79,.4,.63,0,1.29-.12,2-.36,.7-.24,1.05-.73,1.05-1.45,0-.97-.65-1.72-1.96-2.25-1.31-.53-2.95-1.04-4.94-1.52-1.99-.48-4.12-1-6.39-1.56-2.28-.56-4.4-1.34-6.39-2.36-1.99-1.02-3.63-2.36-4.94-4.03-1.31-1.67-1.96-3.86-1.96-6.57,0-3.87,1.49-6.93,4.46-9.18,2.98-2.25,7.25-3.38,12.81-3.38,6.05,0,10.51,1.2,13.4,3.59,2.88,2.4,4.32,6.21,4.32,11.43h1.09V1.09h14.3V19.53h-17.06c-.19-.97-.56-1.84-1.09-2.61-.48-.68-1.16-1.28-2.03-1.82-.87-.53-2.03-.8-3.48-.8-1.89,0-2.83,.9-2.83,2.69Z"/>
      <path class="cls-1" d="M55.47,121.73c-4.31,0-8.08-.57-11.33-1.71-3.24-1.14-5.95-2.79-8.13-4.97s-3.82-4.83-4.94-7.95-1.67-6.67-1.67-10.64,.5-7.38,1.49-10.38c.99-3,2.38-5.52,4.17-7.55,1.79-2.03,3.93-3.57,6.43-4.61,2.49-1.04,5.26-1.56,8.31-1.56,2.86,0,5.28,.29,7.26,.87,1.98,.58,3.6,1.49,4.86,2.72,1.26,1.23,2.17,2.8,2.72,4.68,.56,1.89,.83,4.14,.83,6.75h1.09v-14.3h14.3v18.37h-15.39c-.29-.97-.73-1.84-1.31-2.61-.53-.68-1.22-1.28-2.07-1.81-.85-.53-1.97-.8-3.38-.8-2.42,0-4.12,1-5.08,3.01-.97,2.01-1.45,4.59-1.45,7.73s.45,5.72,1.34,7.73c.9,2.01,2.33,3.01,4.32,3.01,2.28,0,3.87-.97,4.79-2.9,.92-1.94,1.38-4.55,1.38-7.84h18c0,4.26-.63,7.94-1.89,11.04-1.26,3.1-3.05,5.66-5.37,7.7-2.32,2.03-5.12,3.55-8.39,4.54-3.27,.99-6.91,1.49-10.93,1.49Z"/>
      <path class="cls-1" d="M110.93,121.73c-4.02,0-7.73-.51-11.14-1.52-3.41-1.02-6.38-2.55-8.89-4.61-2.52-2.06-4.48-4.63-5.88-7.73-1.4-3.1-2.11-6.73-2.11-10.89s.7-7.8,2.11-10.93c1.4-3.12,3.36-5.71,5.88-7.77,2.52-2.06,5.48-3.59,8.89-4.61,3.41-1.02,7.13-1.52,11.14-1.52s7.73,.51,11.14,1.52c3.41,1.02,6.38,2.55,8.89,4.61,2.52,2.06,4.48,4.65,5.88,7.77,1.4,3.12,2.11,6.76,2.11,10.93s-.7,7.79-2.11,10.89c-1.4,3.1-3.36,5.67-5.88,7.73-2.52,2.06-5.48,3.59-8.89,4.61s-7.13,1.52-11.14,1.52Zm0-34.92c-1.79,0-3.11,.93-3.96,2.79-.85,1.86-1.27,4.32-1.27,7.37s.42,5.52,1.27,7.41c.85,1.89,2.17,2.83,3.96,2.83s3.11-.94,3.96-2.83c.85-1.89,1.27-4.36,1.27-7.41s-.42-5.5-1.27-7.37c-.85-1.86-2.17-2.79-3.96-2.79Z"/>
      <path class="cls-1" d="M164.44,72c4.16,0,7.77,.74,10.82,2.21,3.05,1.48,5.55,3.39,7.51,5.74,1.96,2.35,3.41,5.02,4.36,8.02,.94,3,1.42,6.03,1.42,9.08,0,4.16-.63,7.8-1.89,10.93-1.26,3.12-3.03,5.72-5.3,7.8-2.28,2.08-5.02,3.64-8.24,4.68-3.22,1.04-6.81,1.56-10.78,1.56-3.1,0-5.98-.32-8.64-.94-2.66-.63-4.97-1.6-6.93-2.9-1.96-1.31-3.5-2.96-4.61-4.97-1.11-2.01-1.67-4.39-1.67-7.15,0-2.52,.39-4.72,1.16-6.61s1.85-3.45,3.23-4.68c1.38-1.23,3.02-2.15,4.94-2.76,1.91-.6,4.03-.91,6.35-.91,1.79,0,3.45,.24,4.97,.73,1.52,.48,2.83,1.15,3.92,2,1.09,.85,1.94,1.86,2.54,3.05,.61,1.19,.91,2.48,.91,3.88h1.09c.29-2.27,.15-4.21-.44-5.81-.58-1.6-1.44-2.88-2.58-3.85-1.14-.97-2.5-1.66-4.1-2.07-1.6-.41-3.27-.62-5.01-.62s-3.5,.21-5.26,.62c-1.77,.41-3.4,.96-4.9,1.63l-5.23-14.38c1.6-.92,3.28-1.66,5.05-2.21,1.77-.56,3.61-.99,5.52-1.31,1.91-.31,3.86-.52,5.84-.62,1.98-.1,3.97-.15,5.95-.15Zm-.07,38.62c.39,0,.7-.24,.94-.73,.24-.48,.42-1.09,.54-1.81,.12-.73,.18-1.53,.18-2.4s-.06-1.67-.18-2.4c-.12-.73-.32-1.33-.58-1.82-.27-.48-.57-.73-.91-.73-.53,0-.96,.24-1.27,.73-.32,.48-.56,1.09-.73,1.82-.17,.73-.25,1.52-.25,2.4s.08,1.67,.25,2.4c.17,.73,.42,1.33,.76,1.81,.34,.48,.75,.73,1.23,.73Z"/>
      <path class="cls-1" d="M221.36,105.03c1.98,0,3.91-.24,5.77-.73,1.86-.48,3.54-1.02,5.05-1.6,1.74-.68,3.39-1.45,4.94-2.32l5.23,16.19c-3.39,1.84-7.08,3.23-11.07,4.17-3.99,.94-8.07,1.42-12.23,1.42-5.18,0-9.62-.59-13.32-1.78-3.7-1.19-6.74-2.88-9.11-5.08-2.37-2.2-4.11-4.89-5.23-8.06s-1.67-6.76-1.67-10.78c0-3.44,.59-6.64,1.78-9.62,1.19-2.98,2.93-5.57,5.23-7.77,2.3-2.2,5.17-3.93,8.6-5.19,3.44-1.26,7.41-1.89,11.91-1.89,3.63,0,6.92,.32,9.87,.94,2.95,.63,5.47,1.55,7.55,2.76,2.08,1.21,3.69,2.7,4.83,4.46,1.14,1.77,1.71,3.76,1.71,5.99,0,2.9-.67,5.22-2,6.93-1.33,1.72-3.04,3.05-5.12,3.99-2.08,.94-4.38,1.56-6.9,1.85-2.52,.29-4.94,.44-7.26,.44h-7.26c.24,1.84,1.02,3.24,2.32,4.21,1.31,.97,3.44,1.45,6.39,1.45Zm-2.32-18.73c-2.08,0-3.62,.76-4.61,2.29-.99,1.52-1.61,3.55-1.85,6.06h4.79c1.74,0,3.22-.33,4.43-.98,1.21-.65,1.81-1.73,1.81-3.23,0-1.26-.34-2.26-1.02-3.01-.68-.75-1.86-1.13-3.56-1.13Z"/>
    </g>
  </g>
</svg>