<?xml version="1.0" encoding="UTF-8"?>
<svg id="_Слой_2" data-name="Слой 2" xmlns="http://www.w3.org/2000/svg" viewBox="0 0 468.26 247.86">
  <defs>
    <style>
      .cls-1 {
        fill: none;
        stroke: #be489a;
        stroke-miterlimit: 10;
      }

      .cls-2 {
        fill: #be489a;
      }
    </style>
  </defs>
  <g id="Layer_1" data-name="Layer 1">
    <g>
      <path class="cls-2" d="M23.16,135.62H1.45v-47.92H27.08l5.74,31.94h1.09l5.81-31.94h25.56v47.92h-21.71v-24.98h-1.09l-5.66,24.98h-6.9l-5.66-24.98h-1.09v24.98Z"/>
      <path class="cls-2" d="M108.75,135.62h-41.31v-14.38h9.8v-19.17h-9.8v-14.38h41.31v14.38h-9.8v19.17h9.8v14.38Z"/>
      <path class="cls-2" d="M151.08,135.55h-40.15v-47.84h22.8v33.47h17.35v14.38Z"/>
      <path class="cls-2" d="M174.17,103.25l17.21,3.59-1.16,5.41c-.92-.29-1.86-.56-2.83-.8-.82-.19-1.77-.37-2.83-.54-1.07-.17-2.15-.25-3.27-.25-1.99,0-3.68,.35-5.08,1.05-1.4,.7-2.11,1.88-2.11,3.52,0,.82,.19,1.51,.58,2.07,.39,.56,.91,1.02,1.56,1.38,.65,.36,1.4,.63,2.25,.8,.85,.17,1.71,.25,2.58,.25,1.84,0,3.58-.24,5.23-.73,1.64-.48,3.1-1.02,4.36-1.6,1.5-.68,2.88-1.45,4.14-2.32l5.16,16.19c-3.19,1.84-6.84,3.15-10.93,3.92-4.09,.77-8.43,1.16-13.03,1.16-8.52,0-14.76-1.39-18.73-4.17-3.97-2.78-5.95-6.62-5.95-11.51,0-2.95,.63-5.4,1.89-7.33,1.26-1.94,2.92-3.4,4.97-4.39,2.06-.99,4.38-1.54,6.97-1.63,2.59-.1,5.21,.17,7.88,.8l.29-.94-19.24-4.94v-14.45h43.2v14.38h-23.09v1.1Z"/>
      <path class="cls-2" d="M227.89,117.9c0-.97-.65-1.72-1.96-2.25-1.31-.53-2.95-1.04-4.94-1.52-1.99-.48-4.11-1-6.39-1.56-2.28-.56-4.41-1.34-6.39-2.36s-3.63-2.36-4.94-4.03c-1.31-1.67-1.96-3.86-1.96-6.57,0-3.87,1.49-6.94,4.46-9.22,2.98-2.27,7.25-3.41,12.81-3.41,6.05,0,10.51,1.21,13.39,3.63,2.88,2.42,4.32,6.24,4.32,11.47h1.09v-14.38h14.3v18.44h-17.06c-.19-.97-.56-1.84-1.09-2.61-.48-.68-1.16-1.28-2.03-1.81-.87-.53-2.03-.8-3.49-.8-1.89,0-2.83,.9-2.83,2.69,0,1.16,.65,2.07,1.96,2.72s2.94,1.25,4.9,1.78c1.96,.53,4.09,1.1,6.39,1.71,2.3,.61,4.43,1.44,6.39,2.5,1.96,1.06,3.59,2.48,4.9,4.25,1.31,1.77,1.96,4.05,1.96,6.86,0,2.28-.46,4.24-1.38,5.88-.92,1.65-2.35,2.99-4.28,4.03-1.94,1.04-4.41,1.8-7.41,2.29-3,.48-6.58,.73-10.75,.73-2.47,0-5.01-.1-7.62-.29-2.61-.19-5.16-.5-7.62-.91-2.47-.41-4.82-.94-7.04-1.6-2.23-.65-4.19-1.44-5.88-2.36l5.16-16.12c1.79,.87,3.7,1.65,5.74,2.32,1.69,.58,3.65,1.11,5.88,1.6,2.23,.48,4.5,.73,6.82,.73,1.55,0,2.7-.12,3.45-.36,.75-.24,1.13-.73,1.13-1.45Z"/>
      <path class="cls-2" d="M252.87,119.43c0-5.52,1.88-9.59,5.63-12.23,3.75-2.64,9.35-3.96,16.81-3.96v-1.16h-21.34v-14.38h47.63v17.13h-17.13c-1.5,0-2.8,.23-3.88,.69-1.09,.46-2,1.07-2.72,1.82-.73,.75-1.27,1.61-1.63,2.58-.36,.97-.54,1.99-.54,3.05,0,4.45,2.56,6.68,7.7,6.68,1.79,0,3.53-.24,5.23-.73,1.69-.48,3.19-1.02,4.5-1.6,1.55-.68,3-1.45,4.36-2.32l5.23,16.12c-3.39,1.84-7.18,3.16-11.36,3.96-4.19,.8-8.7,1.2-13.54,1.2-8.13,0-14.32-1.43-18.55-4.28-4.24-2.86-6.35-7.04-6.35-12.56Z"/>
      <path class="cls-2" d="M331.78,136.35c-4.02,0-7.73-.51-11.14-1.52-3.41-1.02-6.38-2.55-8.89-4.61-2.52-2.06-4.48-4.63-5.88-7.73-1.4-3.1-2.11-6.73-2.11-10.89s.7-7.8,2.11-10.93c1.4-3.12,3.36-5.71,5.88-7.77,2.52-2.06,5.48-3.59,8.89-4.61,3.41-1.02,7.13-1.52,11.14-1.52s7.73,.51,11.14,1.52c3.41,1.02,6.38,2.55,8.89,4.61,2.52,2.06,4.48,4.65,5.88,7.77,1.4,3.12,2.11,6.76,2.11,10.93s-.7,7.79-2.11,10.89c-1.4,3.1-3.36,5.68-5.88,7.73-2.52,2.06-5.48,3.59-8.89,4.61-3.41,1.02-7.13,1.52-11.14,1.52Zm0-34.92c-1.79,0-3.11,.93-3.96,2.8-.85,1.86-1.27,4.32-1.27,7.37s.42,5.52,1.27,7.41c.85,1.89,2.17,2.83,3.96,2.83s3.11-.94,3.96-2.83c.85-1.89,1.27-4.36,1.27-7.41s-.42-5.51-1.27-7.37c-.85-1.86-2.17-2.8-3.96-2.8Z"/>
      <path class="cls-2" d="M383.69,135.62h-21.71v-47.92h23.96l7.48,27.81h1.09v-27.81h21.71v47.92h-23.89l-7.55-27.81h-1.09v27.81Z"/>
      <path class="cls-2" d="M440.54,103.25l17.21,3.59-1.16,5.41c-.92-.29-1.86-.56-2.83-.8-.82-.19-1.77-.37-2.83-.54-1.07-.17-2.15-.25-3.27-.25-1.99,0-3.68,.35-5.08,1.05-1.4,.7-2.11,1.88-2.11,3.52,0,.82,.19,1.51,.58,2.07,.39,.56,.91,1.02,1.56,1.38,.65,.36,1.4,.63,2.25,.8,.85,.17,1.71,.25,2.58,.25,1.84,0,3.58-.24,5.23-.73,1.64-.48,3.1-1.02,4.36-1.6,1.5-.68,2.88-1.45,4.14-2.32l5.16,16.19c-3.19,1.84-6.84,3.15-10.93,3.92-4.09,.77-8.43,1.16-13.03,1.16-8.52,0-14.76-1.39-18.73-4.17-3.97-2.78-5.95-6.62-5.95-11.51,0-2.95,.63-5.4,1.89-7.33,1.26-1.94,2.92-3.4,4.97-4.39,2.06-.99,4.38-1.54,6.97-1.63,2.59-.1,5.21,.17,7.88,.8l.29-.94-19.24-4.94v-14.45h43.2v14.38h-23.09v1.1Z"/>
    </g>
    <g>
      <path class="cls-1" d="M40.22,1.65c5.56,0,10.21,.56,13.96,1.68,3.75,1.12,6.78,2.66,9.09,4.61,2.3,1.95,3.95,4.26,4.92,6.92,.97,2.66,1.46,5.53,1.46,8.6,0,6.98-1.98,12.34-5.94,16.09-3.96,3.75-9.52,5.63-16.67,5.63-3.13,0-5.88-.37-8.25-1.11-2.37-.74-4.33-1.74-5.9-3.01-1.57-1.27-2.73-2.78-3.5-4.52-.77-1.74-1.15-3.59-1.15-5.54h-1.33v29.17H.5V1.65H40.22Zm-4.7,25.98c2.25,0,3.86-.42,4.83-1.27,.98-.85,1.46-1.77,1.46-2.76,0-2.92-2.81-4.39-8.42-4.39h-6.47v3.07c.41,1.05,1,1.96,1.77,2.72,.65,.64,1.52,1.24,2.62,1.8,1.09,.56,2.5,.83,4.21,.83Z"/>
      <path class="cls-1" d="M104.85,61.05c-4.91,0-9.44-.62-13.61-1.86s-7.79-3.12-10.86-5.63c-3.07-2.51-5.47-5.66-7.18-9.44-1.71-3.78-2.57-8.21-2.57-13.3s.86-9.53,2.57-13.34c1.71-3.81,4.11-6.97,7.18-9.49,3.07-2.51,6.69-4.39,10.86-5.63s8.7-1.86,13.61-1.86,9.44,.62,13.61,1.86,7.79,3.12,10.86,5.63c3.07,2.51,5.47,5.67,7.18,9.49,1.71,3.81,2.57,8.26,2.57,13.34s-.86,9.52-2.57,13.3c-1.71,3.78-4.11,6.93-7.18,9.44-3.07,2.51-6.69,4.39-10.86,5.63s-8.7,1.86-13.61,1.86Zm0-42.65c-2.19,0-3.8,1.14-4.83,3.41-1.04,2.28-1.55,5.28-1.55,9s.52,6.74,1.55,9.04c1.03,2.31,2.64,3.46,4.83,3.46s3.8-1.15,4.83-3.46c1.03-2.31,1.55-5.32,1.55-9.04s-.52-6.72-1.55-9c-1.04-2.27-2.65-3.41-4.83-3.41Z"/>
      <path class="cls-1" d="M190.76,60.08h-49.03V1.65h27.84V42.52h21.19v17.55Z"/>
      <path class="cls-1" d="M242.36,60.17h-50.45v-17.55h11.97V19.21h-11.97V1.65h50.45V19.21h-11.97v23.41h11.97v17.55Z"/>
      <path class="cls-1" d="M271.53,60.17h-26.51V1.65h29.26l9.13,33.96h1.33V1.65h26.51V60.17h-29.17l-9.22-33.96h-1.33V60.17Z"/>
      <path class="cls-1" d="M332.08,61.05c-2.07,0-4.14-.25-6.21-.75-2.07-.5-3.93-1.3-5.58-2.39-1.66-1.09-3-2.56-4.03-4.39-1.04-1.83-1.55-4.14-1.55-6.92,0-3.25,.58-6,1.73-8.25,1.15-2.25,2.76-4.09,4.83-5.54,2.07-1.45,4.49-2.47,7.27-3.06,2.78-.59,5.79-.89,9.04-.89,2.84,0,5.39,.18,7.67,.53,2.27,.35,3.95,.71,5.01,1.06v-4.52c0-4.02-1.04-6.03-3.1-6.03-1.18,0-2.13,.34-2.84,1.02-.71,.68-1.27,1.43-1.68,2.26-.41,.95-.74,2.01-.98,3.19h-23.85V2.63h19.95v15.69h1.6c0-2.78,.5-5.19,1.51-7.23,1-2.04,2.38-3.78,4.12-5.23,1.74-1.45,3.87-2.54,6.38-3.28,2.51-.74,5.19-1.11,8.02-1.11,3.49,0,6.54,.43,9.18,1.29,2.63,.86,4.83,2.2,6.61,4.03,1.77,1.83,3.12,4.21,4.03,7.14,.92,2.93,1.37,6.52,1.37,10.77V59.9h-26.42v-16.67h-1.51c0,6.56-1.73,11.17-5.19,13.83s-8.59,3.99-15.38,3.99Zm14.45-24.74c-1.18,0-2.1,.43-2.75,1.29-.65,.86-.97,1.85-.97,2.97,0,1.36,.32,2.35,.97,2.97s1.33,.93,2.04,.93c.95,0,1.7-.32,2.26-.98,.56-.65,1.02-1.39,1.38-2.22,.35-.94,.62-2.07,.8-3.37v-.8c-.53-.12-1.11-.28-1.73-.49-.62-.21-1.29-.31-1.99-.31Z"/>
      <path class="cls-1" d="M392.37,1.65c2.42,0,4.33,.77,5.72,2.31,1.39,1.54,2.08,3.81,2.08,6.83,0,2.66-.33,5.01-.98,7.05s-1.51,3.81-2.57,5.32c-1.06,1.51-2.25,2.76-3.55,3.77-1.3,1.01-2.6,1.77-3.9,2.31l-2.22-5.76c1.24-.47,2.45-1.15,3.63-2.04,1.18-.89,2.13-2.33,2.84-4.34-.3,.06-.56,.1-.8,.13-.24,.03-.5,.04-.8,.04-2.25,0-4.02-.75-5.32-2.26-1.3-1.51-1.95-3.35-1.95-5.54s.68-4.03,2.04-5.54c1.36-1.51,3.28-2.26,5.76-2.26Z"/>
      <path class="cls-1" d="M436.96,38.54c0-1.18-.8-2.1-2.39-2.75-1.6-.65-3.61-1.27-6.03-1.86-2.42-.59-5.02-1.23-7.8-1.91-2.78-.68-5.38-1.64-7.8-2.88-2.42-1.24-4.43-2.88-6.03-4.92-1.6-2.04-2.39-4.71-2.39-8.02,0-4.73,1.82-8.48,5.45-11.26,3.64-2.78,8.85-4.17,15.65-4.17,7.39,0,12.84,1.48,16.36,4.43,3.52,2.96,5.28,7.62,5.28,14.01h1.33V1.65h17.47V24.17h-20.83c-.24-1.18-.68-2.25-1.33-3.19-.59-.83-1.42-1.57-2.48-2.22-1.06-.65-2.48-.98-4.26-.98-2.31,0-3.46,1.09-3.46,3.28,0,1.42,.8,2.53,2.39,3.32,1.6,.8,3.59,1.52,5.99,2.17,2.39,.65,4.99,1.35,7.8,2.08,2.81,.74,5.41,1.76,7.8,3.06,2.39,1.3,4.39,3.03,5.98,5.19,1.6,2.16,2.39,4.95,2.39,8.38,0,2.78-.56,5.17-1.68,7.18-1.12,2.01-2.87,3.65-5.23,4.92-2.36,1.27-5.38,2.2-9.04,2.79-3.67,.59-8.04,.89-13.12,.89-3.01,0-6.12-.12-9.31-.35-3.19-.24-6.29-.6-9.31-1.11-3.01-.5-5.88-1.15-8.6-1.95-2.72-.8-5.11-1.76-7.18-2.88l6.29-19.68c2.19,1.06,4.52,2.01,7,2.84,2.07,.71,4.46,1.36,7.18,1.95,2.72,.59,5.5,.89,8.33,.89,1.89,0,3.29-.15,4.21-.44,.92-.29,1.37-.89,1.37-1.77Z"/>
    </g>
    <g>
      <path class="cls-1" d="M55.53,165.21c7.68,0,14.12,.78,19.31,2.33,5.19,1.55,9.38,3.68,12.57,6.38,3.19,2.7,5.46,5.89,6.81,9.56s2.02,7.64,2.02,11.89c0,9.65-2.74,17.06-8.21,22.25-5.48,5.19-13.16,7.79-23.05,7.79-4.33,0-8.13-.51-11.4-1.53-3.27-1.02-5.99-2.41-8.15-4.17-2.17-1.76-3.78-3.84-4.84-6.25-1.06-2.41-1.59-4.97-1.59-7.66h-1.84v40.34H.6v-80.92H55.53Zm-6.5,35.93c3.11,0,5.33-.59,6.68-1.76,1.35-1.17,2.02-2.45,2.02-3.82,0-4.04-3.88-6.07-11.65-6.07h-8.95v4.25c.57,1.46,1.39,2.71,2.45,3.76,.9,.89,2.1,1.72,3.62,2.49,1.51,.77,3.45,1.15,5.82,1.15Z"/>
      <path class="cls-1" d="M120.27,247.36c-2.86,0-5.72-.35-8.58-1.04-2.86-.69-5.44-1.8-7.72-3.31-2.29-1.51-4.15-3.53-5.58-6.07-1.43-2.53-2.15-5.72-2.15-9.56,0-4.49,.8-8.3,2.39-11.4,1.59-3.11,3.82-5.66,6.68-7.66,2.86-2,6.21-3.41,10.05-4.23,3.84-.82,8.01-1.23,12.51-1.23,3.92,0,7.46,.25,10.61,.74,3.15,.49,5.46,.98,6.93,1.47v-6.25c0-5.56-1.43-8.34-4.29-8.34-1.64,0-2.94,.47-3.92,1.41-.98,.94-1.76,1.98-2.33,3.13-.57,1.31-1.02,2.78-1.35,4.41h-32.98v-32.86h27.59v21.7h2.21c0-3.84,.69-7.17,2.08-9.99,1.39-2.82,3.29-5.23,5.7-7.23,2.41-2,5.35-3.51,8.83-4.54,3.47-1.02,7.17-1.53,11.1-1.53,4.82,0,9.05,.59,12.69,1.78,3.64,1.19,6.68,3.05,9.13,5.58,2.45,2.53,4.31,5.82,5.58,9.87,1.27,4.05,1.9,9.01,1.9,14.9v48.68h-36.54v-23.05h-2.08c0,9.07-2.39,15.45-7.17,19.13s-11.87,5.52-21.27,5.52Zm19.99-34.21c-1.64,0-2.9,.59-3.8,1.78-.9,1.19-1.35,2.56-1.35,4.11,0,1.88,.45,3.25,1.35,4.11,.9,.86,1.84,1.29,2.82,1.29,1.31,0,2.35-.45,3.13-1.35,.78-.9,1.41-1.92,1.9-3.06,.49-1.31,.86-2.86,1.1-4.66v-1.1c-.74-.16-1.53-.39-2.39-.67-.86-.29-1.78-.43-2.76-.43Z"/>
      <path class="cls-1" d="M288.49,241.35c-3.92,2.13-8.44,3.66-13.55,4.6-5.11,.94-10.03,1.41-14.77,1.41-6.79,0-12.34-1.06-16.67-3.19-4.33-2.12-7.77-5.07-10.3-8.83-2.53-3.76-4.27-8.15-5.21-13.18-.94-5.03-1.41-10.48-1.41-16.37h-1.84v40.34h-32v-80.92h54.93c7.03,0,13.02,.59,17.96,1.78,4.95,1.19,8.97,2.86,12.08,5.03,3.11,2.17,5.37,4.78,6.81,7.85,1.43,3.07,2.15,6.48,2.15,10.24,0,4.09-.8,7.64-2.39,10.67-1.59,3.02-3.68,5.58-6.25,7.66-2.57,2.08-5.52,3.7-8.83,4.84-3.31,1.15-6.7,1.84-10.18,2.08-3.47,.25-6.91,.08-10.3-.49-3.39-.57-6.44-1.51-9.13-2.82l-.74,1.23c1.14,1.06,2.7,2.04,4.66,2.94,1.63,.74,3.76,1.41,6.38,2.02,2.61,.61,5.76,.92,9.44,.92,2.78,0,5.4-.26,7.85-.8,2.45-.53,4.62-1.12,6.5-1.78,2.12-.74,4.13-1.59,6.01-2.58l8.83,27.34Zm-59.1-47.57c.49,1.47,1.18,2.74,2.08,3.8,.74,.9,1.72,1.74,2.94,2.51,1.23,.78,2.78,1.17,4.66,1.17,2.62,0,4.48-.59,5.58-1.78,1.1-1.18,1.66-2.47,1.66-3.86,0-4.09-3.19-6.13-9.56-6.13h-7.36v4.29Z"/>
      <path class="cls-1" d="M287.88,218.79c0-9.32,3.17-16.2,9.5-20.66,6.33-4.45,15.8-6.68,28.38-6.68v-1.96h-36.05v-24.28h80.43v28.94h-28.94c-2.53,0-4.72,.39-6.56,1.16-1.84,.78-3.37,1.8-4.6,3.07-1.23,1.27-2.15,2.72-2.76,4.35-.61,1.64-.92,3.35-.92,5.15,0,7.52,4.33,11.28,13,11.28,3.02,0,5.97-.41,8.83-1.23,2.86-.82,5.39-1.72,7.6-2.7,2.62-1.14,5.07-2.45,7.36-3.92l8.83,27.22c-5.72,3.11-12.12,5.33-19.19,6.68-7.07,1.35-14.69,2.02-22.87,2.02-13.73,0-24.18-2.41-31.33-7.23-7.15-4.82-10.73-11.89-10.73-21.21Z"/>
      <path class="cls-1" d="M427.17,165.09h40.46l-18.27,81.05h-69.4v-24.28h35.19v-1.84c-6.62,0-12.02-.55-16.18-1.66s-7.48-2.59-9.93-4.48c-2.45-1.88-4.27-4.05-5.46-6.5-1.19-2.45-2.11-5.07-2.76-7.85l-8.09-34.45h41.2l5.76,47.21h1.84l5.64-47.21Z"/>
    </g>
  </g>
</svg>