<svg xmlns="http://www.w3.org/2000/svg" viewBox="0 0 456.83 96.59"><defs><style>.cls-1{fill:#4a494a;}</style></defs><title>names</title><g id="Слой_2" data-name="Слой 2"><g id="Layer_1" data-name="Layer 1"><path class="cls-1" d="M33,68.18a2.06,2.06,0,0,1-1.65-2Q31,61,46,42l1-1.65L46,40q-11.53-4.32-15.84-5c-.33,0-3.19,1.42-8.55,4.25a68.51,68.51,0,0,0-17.08,13Q1,56.2,1,58.21c0,.17.13,0,.38-.38l.12-.5.13.5-.37.89c-.25.59-.58.68-1,.26s-.35-1.56.48-3.16a28.4,28.4,0,0,1,5.62-7.38A74.78,74.78,0,0,1,19,39.36c.92-.52,2.48-1.31,4.66-2.38s3.4-1.69,3.65-1.86L28,34.6l-.63-.12a25.93,25.93,0,0,0-8-.94q-9.23.59-15.12,4.93c-1.59,1.2-2.51,2.34-2.75,3.44,0,.59.76.88,2.28.86.17,0,.25,0,.25.13-.33.34-1,.43-2,.27-.42-.17-.68-.33-.76-.5-.77-1.6.47-3.55,3.74-5.85q5.54-3.59,14.12-4a34.52,34.52,0,0,1,8.85.94l1.4.24,10.7-5q22.4-10.43,25.3-12.1a8,8,0,0,0,2.51-2A81,81,0,0,1,79.7,4.21,21.2,21.2,0,0,1,85.22.5a2.23,2.23,0,0,1,1.65.11c.5.25.72.59.64,1,0,.92-2,2.88-5.89,5.86Q74.33,13.11,72.7,14a6.54,6.54,0,0,0-2.14,1.41q-3.75,3.32-13.39,15.53-7.38,8.91-7.37,9.54Q65,46.8,67.4,44.63c.59-.51,1-.68,1.14-.51s0,.54-.75,1.14a6.89,6.89,0,0,1-5.31.55A110.56,110.56,0,0,1,49.3,41.12l-1,1.27q-10.38,12.86-14.11,20-2.11,4.2-1.22,5.2Q33.6,68.16,33,68.18ZM47.64,39.62A15.71,15.71,0,0,0,49,38q2.5-3,7.13-9t6.37-8l1.75-2.16-2,.9q-5.79,3-23.16,11.07l-6.8,3.09-1.13.64a3.65,3.65,0,0,1,.76.12q3.28.85,7.22,2.09t6.21,2.09ZM75,11.08l.88-.64a71.45,71.45,0,0,0,9.53-8.17L85.49,2a20.35,20.35,0,0,0-2.26,1.67Q81.6,5,76.08,9.93Z"/><path class="cls-1" d="M72.54,54.32a1.79,1.79,0,0,1-.89-.63,3.05,3.05,0,0,1-.27-1.51c.16-1.69,1.61-4.14,4.36-7.37l1-1.14L76,44.3c-1.34,1-3.35,2.39-6,4.1q-3.9,2.19-4.79,1.18c-.68-.84-.52-2,.47-3.42q2.63-3.55,3-1.79c.09.33-.24.88-1,1.65a8.93,8.93,0,0,0-1,1.27,11.6,11.6,0,0,0-.74,1.27q-.26.51-.12.63c.33.34,1.72-.22,4.15-1.67a44.81,44.81,0,0,0,9.3-6.91,9.52,9.52,0,0,1,1.5-1.15c1-.09,1.52.11,1.52.62,0,.34-1,1.48-3.13,3.44a48.44,48.44,0,0,0-5.88,7q-1.74,2.92-.47,3.16a5.9,5.9,0,0,0,3.59-.91A88.77,88.77,0,0,0,84,47.9l1.2-.83,1.44-1,1.13-.83,1.64-1.16a.36.36,0,0,1,.44.06q.19.2-.06.45l-.63.51-1.88,1.4q-10.42,7.29-13,7.82C73.3,54.48,72.71,54.49,72.54,54.32Z"/><path class="cls-1" d="M86,51c-1.1-1.08-1-2.52.22-4.29a8.35,8.35,0,0,1,4-3.58c1-.43,1.72-.43,2.15,0,.34.25.4.68.2,1.27a3.15,3.15,0,0,1-1.19,1.52,8,8,0,0,1-3.65,1.55,1.07,1.07,0,0,0-.88.64c-1,1.78-.52,2.78,1.42,3q5.68,0,14.1-6.06l1.51-1c.08-.09.21-.09.38,0a.25.25,0,0,1,.13.38A38.6,38.6,0,0,1,93.86,50.6C89.91,52.15,87.31,52.3,86,51Zm1.86-4.31a5.48,5.48,0,0,0,2.52-1A4,4,0,0,0,91.91,44c.08-.25,0-.38-.26-.37l-1.38.76C88.6,45.71,87.8,46.48,87.89,46.73Z"/><path class="cls-1" d="M108,52.37c-1.77-.57-2.09-2.76-.94-6.56l.24-1c-.17-.17-.71.13-1.63.89a31.87,31.87,0,0,0-2.63,2.36,11.58,11.58,0,0,0-1.88,2.11,2.21,2.21,0,0,0-.37.88c0,.34-.17.34-.51,0q-1-1,2.85-6.34a23.73,23.73,0,0,1,3.51-4c.67-.6,1.17-.69,1.51-.27s-.16,1.1-1.24,2.29a14.69,14.69,0,0,0-2.5,2.93,2.35,2.35,0,0,0,.5-.39,32.38,32.38,0,0,1,9.8-6,2.76,2.76,0,0,1,2.15-.15,1.24,1.24,0,0,1,.65,1.39,9.55,9.55,0,0,1-1.43,2.73A14.91,14.91,0,0,1,113.92,46c-.59.6-1,.77-1.26.52-.09-.08,0-.25.37-.51a20.88,20.88,0,0,0,2.5-3.18A9.53,9.53,0,0,0,116.77,40c0-.76-1.69-.24-5,1.56a1.38,1.38,0,0,1-.38.25,25.33,25.33,0,0,0-3.64,2.31.49.49,0,0,0,.13.38c.25.25.17,1-.24,2.15a10.75,10.75,0,0,0-.23,2.53c-.07,1.77.49,2.65,1.67,2.64q2.52,0,7.68-3.61a45.37,45.37,0,0,0,3.76-2.93L122.24,44l.38-.26c.17-.08.29-.09.38,0v.5l-1,.77a65.08,65.08,0,0,1-9.17,6.4Q109.8,53,108,52.37Z"/><path class="cls-1" d="M119.9,51.13a2.54,2.54,0,0,1-.91-2.9,11,11,0,0,1,2.56-3.81,12.71,12.71,0,0,1,4-2.94,3.33,3.33,0,0,1,2-.33c.59.12.89.39.89.81a4.54,4.54,0,0,1-1.49,2.67c-1.25,1.1-2.09,1.66-2.51,1.66-.59,0-.51-.25.24-.76a10.51,10.51,0,0,0,2.39-2.1c.66-.81.87-1.34.62-1.59s-1.06.1-2.4,1a13.72,13.72,0,0,0-4.2,4c-1,1.57-1.34,2.73-.92,3.48s1.61,1,3.8.73A23.19,23.19,0,0,0,131,48.89a42,42,0,0,0,6.66-4.1l1-.64.63-.51a.5.5,0,0,1,.51.37l-.63.51a47.7,47.7,0,0,1-5.28,3.59l-2.77,1.41Q123.21,53.51,119.9,51.13Z"/><path class="cls-1" d="M140.51,52.6a2,2,0,0,1-.9-1.89,7.08,7.08,0,0,1,.48-2.66l.25-.63-.76.39a6,6,0,0,1-1.13.76c-.16.09-.46.26-.88.52s-.75.47-1,.64a1.3,1.3,0,0,1-1.58,0,1.43,1.43,0,0,1-.33-1.71,8.66,8.66,0,0,1,2.69-3,12,12,0,0,1,4-2.31,1.76,1.76,0,0,1,2.15.61c.17.25.3.34.38.25.42-.17.72-.09.89.25l-.12.13c-.09.17-.17.31-.25.44a3.63,3.63,0,0,0-.25.44,14,14,0,0,0-3.25,4.58c-.41,1.36-.36,2.24.15,2.65.76.5,2.49.19,5.17-.92a47.39,47.39,0,0,0,10.31-6.41c1.42-1.11,2.09-1.41,2-.9q-.13.51-3.45,2.93a59.56,59.56,0,0,1-5.85,3.84,28.44,28.44,0,0,1-3.27,1.55,13.84,13.84,0,0,1-3.09.85A3.74,3.74,0,0,1,140.51,52.6Zm-3.45-4.9c-.42.51-.59.76-.5.76a20.19,20.19,0,0,0,2.14-1.15c2.84-1.63,4.27-2.86,4.26-3.7-.17-.51-.84-.33-2,.52A17.13,17.13,0,0,0,137.06,47.7Z"/><path class="cls-1" d="M163.5,52q-3,.9-4.05-.73c-.51-1,0-2.53,1.48-4.56q.75-1,.63-1a5.14,5.14,0,0,1-2,.27l-1.77.14-1.88,2q-2.62,3.06-2.5,3.56c.09.25,0,.38-.25.38l-.25-.25a1.19,1.19,0,0,1-.38-.25,1.31,1.31,0,0,1-.14-1l.87-1.65c.5-.67,1.77-2.14,3.82-4.39s3.4-3.71,4.07-4.39c.92-.77,1.51-1,1.76-.78q.88.63-2.62,4.32l-2,1.92,1.39-.14a5.69,5.69,0,0,0,3.4-1q2.64-2.55,3.4-1.8c.42.33.21.84-.62,1.52a33.51,33.51,0,0,0-3.07,3,17.47,17.47,0,0,0-2.19,2.73q-.62,1.91.84,1.89a7.28,7.28,0,0,0,3.21-.91q3.28-1.29,9.68-5.9l2.39-1.66c.17-.09.29-.09.38,0s.09.21,0,.37a61.9,61.9,0,0,1-6,4.48A21.14,21.14,0,0,1,163.5,52Z"/><path class="cls-1" d="M138.86,96.59q-3.54,0-.56-6.82l1-1.9q6.47-12.57,19.26-24.3Q163.7,59,174,53.07a6.87,6.87,0,0,0,2.64-2.55l1.12-1.77-.5.38-.26.25a7.2,7.2,0,0,1-2.89,1.8c-.92.26-1.56.09-1.9-.49-.68-1.26.21-3.18,2.67-5.78s4.58-3.89,6.35-3.9c.67,0,1.05.11,1.14.37q.38.24.51.12l1.75-2.17A27.42,27.42,0,0,1,187.38,36c.75-.76,1.25-1.14,1.51-1.15l.25.25c0,.26-.33.72-1,1.4q-2.88,3.57-9.74,13.74l-.87,1.27a93.32,93.32,0,0,0,13.58-7.45l1.26-.89q.25-.25.51.24a2.28,2.28,0,0,1-.63.64l-.5.38q-2.9,2.17-14.84,8.22l-1.5,2q-9.49,14-21.24,28.36Q143.16,96.56,138.86,96.59Zm-.38-.75q2.91.22,10.17-7.92a313.43,313.43,0,0,0,23.74-31.17l2.25-3.18a75.1,75.1,0,0,0-8,4.75,62.62,62.62,0,0,0-9.91,8.3,82.52,82.52,0,0,0-8.89,10.18Q138.93,88.26,138,94.08C137.71,95.26,137.89,95.84,138.48,95.84ZM173.6,50.55q1.4,0,3.84-2.37a28.07,28.07,0,0,0,3.81-4.39,4.29,4.29,0,0,0,.87-1.66c0-.25-.12-.37-.38-.37-1.51,0-3.69,1.72-6.53,5.11Q172.09,50.56,173.6,50.55Z"/><path class="cls-1" d="M165.58,87.65c-.08.17-.3.08-.64-.25l-.38-.12,1.12-1.78,12-20q15.07-24.39,22.21-33.42c.58-.68,1-1,1.25-.9s.38,0,.38.12c0,.43-1.49,2.84-4.48,7.25l-3,4.32.26.38.25.5,2.27-1.28a19.77,19.77,0,0,1,4.78-1.94c.85,0,1.35.24,1.53.74.34.85-.41,2.49-2.24,5l-1.62,1.91Q204.05,50,211,46.06c1.43-.85,2.89-1.84,4.4-2.94.17-.17.31-.22.44-.13s.15.21.07.37l-.63.64a25.64,25.64,0,0,1-4.65,3.07q-6.54,3.48-12.12,1.75l-1.12,1.27q-4.52,4.35-6.18,1.45a4.38,4.38,0,0,1,0-3.29l.12-.63-3,4.32q-6.36,8.91-14.34,22.49Q166.46,86.75,165.58,87.65Zm26.74-35.74a2.87,2.87,0,0,0,2.39-.91,10.83,10.83,0,0,0,1.07-.89c.46-.43.85-.81,1.19-1.15l.37-.63a8.21,8.21,0,0,1-2.93-2.76c-.08-.25-.34-.21-.75.13a5.17,5.17,0,0,0-1.25,1.91Q191,51.54,192.32,51.91ZM198,47.69c.08,0,.31-.21.69-.64s.81-1,1.31-1.59a16.37,16.37,0,0,0,1.13-1.59,6.4,6.4,0,0,0,1-1.78c.17-.42.2-.67.12-.76q-.37-.37-4.16,1.43c-2,1.11-3,1.88-3,2.3,0,.25.36.75,1.09,1.51A2.9,2.9,0,0,0,198,47.69Z"/><path class="cls-1" d="M216.06,50.06a4.36,4.36,0,0,1,.36-2.66l.24-.63c0-.08-.31.09-.94.51s-1.34.88-2.14,1.35-1.32.66-1.57.58c-.59-.08-.93-.29-1-.62a1.69,1.69,0,0,1,0-1.27A8.79,8.79,0,0,1,214,44a11,11,0,0,1,3.64-2c1.1-.26,1.86-.06,2.28.61l.26.25a.71.71,0,0,1,.57,0c.21.08.31.16.32.25a4.56,4.56,0,0,1-.63,1,15,15,0,0,0-3.25,4.58c-.49,1.61-.16,2.51,1,2.71a7.9,7.9,0,0,0,4.47-1q3.28-1.29,11.07-7,3.26-2.69,3.13-3.19A.12.12,0,0,1,237,40q1.77,0-1.74,2.93a51.52,51.52,0,0,1-9.67,6.9,23.56,23.56,0,0,1-4.28,1.94,6.63,6.63,0,0,1-3.54.28A2,2,0,0,1,216.06,50.06Zm-2.55-3-.5.76a9.48,9.48,0,0,0,2-1.15q4.53-2.44,4.27-3.7c-.09-.42-.76-.25-2,.52A12.69,12.69,0,0,0,213.51,47.05Z"/><path class="cls-1" d="M259,56.27q2.42,1.36,6.57-.63a26.92,26.92,0,0,0,7.54-5.43,27.23,27.23,0,0,0,2.75-3.44c.33-.51.45-.84.37-1s0-.13.12-.13q1.26,0-1.23,3.3a24.57,24.57,0,0,1-9.1,7.28q-5.48,2.57-8-.06a4.84,4.84,0,0,1-1-2.08,3.69,3.69,0,0,1,.48-2.4c.46-.89.79-1.5,1-1.84s.68-1,1.43-2l.88-1.27-.13.13a1.06,1.06,0,0,0-.44.19,5.91,5.91,0,0,1-.57.32c-2.51,1.37-4.07,2.06-4.65,2.06a1,1,0,0,1-.76-.24q-.9-1.26,1.6-4.44,2.63-3.69,4.14-4.33l.37-.13c.34,0,.59.25.77.75.17.25-.42,1-1.75,2.29a24.34,24.34,0,0,0-2.07,2.1c-.71.81-1.27,1.49-1.69,2s-.58.87-.5,1,.36,0,1.08-.32,1.55-.71,2.51-1.23,1.78-1,2.45-1.41A31.13,31.13,0,0,0,264,43c1.34-1.27,2.14-1.78,2.39-1.53s.38.58.14,1a16.43,16.43,0,0,1-2.26,2.42,31.25,31.25,0,0,0-4.13,4.58Q256.29,54.77,259,56.27Z"/><path class="cls-1" d="M292.18,70.26c-.84,0-1.26-.36-1.27-1.12s.61-2.45,2.11-5.08,4.13-7.05,8.16-13.52,6.87-10.91,8.54-13.29l.37-.88a4.25,4.25,0,0,1-1.89.27,6.45,6.45,0,0,1-2.15-.24,3.41,3.41,0,0,1-1.91-1.25,1.65,1.65,0,0,1,.11-2,2.66,2.66,0,0,1,2.65-.91,7.49,7.49,0,0,1,3.55,1.62l1,.62,2.62-3.94q5.49-8.5,13-18.56,5.51-7.13,7.5-10C335.4.64,336,0,336.32,0c.68,0,1,.29.89.88-.32,1.26-2.65,4.87-7,10.8l-10,14q-5.75,8.27-5.62,8.38.39.38,9.82-4.38A108.48,108.48,0,0,0,340.9,18.41,114.3,114.3,0,0,0,353.07,7.82c1.51-1.28,2.34-1.7,2.52-1.29.08.17-.15.64-.69,1.4S354,9,353.84,9s-.71.47-1.63,1.4a125.42,125.42,0,0,1-13,11.36q-12.56,9.59-24,13.48c-1.09.43-1.72.69-1.89.77s-.12.34.13.76q2.43,3.27,4.51,10.07c1,3.2,1.64,5,1.82,5.42q3.1,8.57,8.68,10.54a9.37,9.37,0,0,0,6.19.2,17.27,17.27,0,0,0,6.92-3.47c.26-.26.47-.3.64-.13.42.42.09,1-1,1.65q-6.66,4.35-11.86,2.88a15,15,0,0,1-8.39-6.37c-1.37-2.1-2.92-5.87-4.65-11.34q-2-6.3-3.48-8.56l-.39-.38-2,2.8Q293,66.22,292.3,69a1,1,0,0,0,.26.88C293,70.22,292.86,70.34,292.18,70.26Zm16.26-34.64,2.15-.27c.08-.08,0-.27-.32-.56a6.75,6.75,0,0,0-1.15-.88,5.1,5.1,0,0,0-1.08-.56c-1.77-.74-2.78-.61-3,.41-.24.84.27,1.43,1.54,1.75A4.37,4.37,0,0,0,308.44,35.62Z"/><path class="cls-1" d="M341.45,52.66q0-1.77,2.73-5.59l.87-1.27-.12.13a1,1,0,0,0-.44.19,5.91,5.91,0,0,1-.57.32q-3.78,2.06-4.66,2.06a1,1,0,0,1-.76-.24q-.9-1.26,1.61-4.44c1.75-2.46,3.12-3.9,4.13-4.33l.38-.13c.34,0,.59.25.76.75.17.25-.41,1-1.75,2.29a24.29,24.29,0,0,0-2.06,2.1c-.71.81-1.28,1.49-1.69,2s-.59.87-.5,1,.36,0,1.07-.32,1.55-.71,2.52-1.23,1.78-1,2.45-1.41a29.52,29.52,0,0,0,2.89-2.3c1.33-1.27,2.13-1.78,2.39-1.53a.9.9,0,0,1,.13,1,15.47,15.47,0,0,1-2.25,2.42q-5.4,5.48-6.26,7.76c-.74,2,.65,2.14,4.18.6q6.67-3,16.84-10.64a.71.71,0,0,1,.89.12,71.44,71.44,0,0,1-8.92,6.27,50.77,50.77,0,0,1-9.69,5.39Q341.47,55.31,341.45,52.66Z"/><path class="cls-1" d="M336.8,86.19c-.08.16-.29.08-.63-.25l-.38-.12L336.91,84l12-20Q364,39.7,371.08,30.67c.59-.68,1-1,1.26-.9s.38,0,.38.12c0,.43-1.49,2.84-4.49,7.24l-3,4.33.25.38.26.5L368,41.05a20.08,20.08,0,0,1,4.79-1.93c.84,0,1.35.24,1.52.74q.51,1.26-2.23,5l-1.63,1.91q4.82,1.86,11.74-2.12c1.42-.85,2.89-1.84,4.39-2.94.17-.17.32-.22.45-.14a.27.27,0,0,1,.06.38l-.62.64a26.93,26.93,0,0,1-4.65,3.07q-6.56,3.48-12.12,1.75l-1.13,1.27q-4.51,4.34-6.18,1.45a4.38,4.38,0,0,1,0-3.29l.12-.63q-.24.38-3,4.32-6.37,8.9-14.34,22.49Q337.68,85.29,336.8,86.19Zm26.74-35.74a2.89,2.89,0,0,0,2.4-.91,11,11,0,0,0,1.06-.89c.46-.43.86-.81,1.19-1.15l.38-.64a8.17,8.17,0,0,1-2.93-2.75c-.09-.25-.34-.21-.76.13a5.17,5.17,0,0,0-1.25,1.91Q362.28,50.08,363.54,50.45Zm5.65-4.22c.09,0,.32-.21.69-.64s.82-1,1.32-1.59a16,16,0,0,0,1.12-1.59,6.75,6.75,0,0,0,1-1.78c.16-.42.2-.67.12-.76q-.39-.37-4.16,1.43c-2,1.11-3,1.88-3,2.3,0,.25.37.75,1.09,1.5A2.91,2.91,0,0,0,369.19,46.23Z"/><path class="cls-1" d="M386.56,52.27q0-1.77,2.73-5.58l.87-1.27-.12.12a1.08,1.08,0,0,0-.44.2c-.21.13-.4.23-.57.32-2.51,1.37-4.07,2-4.66,2.06a1,1,0,0,1-.76-.25c-.59-.83-.06-2.31,1.61-4.43,1.75-2.46,3.12-3.9,4.13-4.34l.38-.13c.34,0,.59.25.76.76.18.25-.41,1-1.74,2.29a20.66,20.66,0,0,0-2.07,2.1c-.71.81-1.28,1.48-1.69,2s-.58.87-.5,1,.36,0,1.07-.33,1.56-.71,2.52-1.22,1.78-1,2.45-1.41a31.13,31.13,0,0,0,2.89-2.3c1.34-1.28,2.13-1.79,2.39-1.54a.91.91,0,0,1,.13,1,14,14,0,0,1-2.25,2.42q-5.38,5.49-6.25,7.76c-.75,2,.65,2.15,4.17.6q6.67-3,16.85-10.63a.7.7,0,0,1,.88.12,72.5,72.5,0,0,1-8.92,6.27,52.26,52.26,0,0,1-9.68,5.39C388,54.37,386.57,54,386.56,52.27Z"/><path class="cls-1" d="M413.59,51.41a1.83,1.83,0,0,1-.89-.62,3,3,0,0,1-.26-1.52c.15-1.69,1.61-4.14,4.36-7.37l1-1.14-.75.64q-2,1.53-6,4.09-3.9,2.19-4.8,1.18-1-1.26.48-3.42,2.63-3.55,3-1.79c.08.33-.25.88-1,1.65a8.27,8.27,0,0,0-1,1.27,14,14,0,0,0-.75,1.27q-.24.51-.12.63.51.51,4.16-1.67a45,45,0,0,0,9.29-6.91,9.52,9.52,0,0,1,1.51-1.15c1-.09,1.52.12,1.52.62q0,.51-3.13,3.44a47.11,47.11,0,0,0-5.88,7c-1.16,2-1.32,3-.48,3.17a6,6,0,0,0,3.6-.92q2.19-1.15,7.6-4.87l1.19-.83,1.45-1,1.13-.83,1.63-1.16a.36.36,0,0,1,.44.06q.19.2-.06.45l-.62.51-1.89,1.4q-10.43,7.31-12.95,7.82C414.35,51.57,413.76,51.58,413.59,51.41Z"/><path class="cls-1" d="M439,52.2c-1.85.27-3.18,0-4-.91a3.06,3.06,0,0,1-.47-3.35,20.58,20.58,0,0,1,4.12-6.22l1-1.15-.75.64c-1.34,1-3.35,2.39-6,4.09q-3.9,2.19-4.8,1.18c-.68-.83-.52-2,.48-3.41q2.63-3.57,3-1.8c.08.34-.25.89-1,1.65a8.39,8.39,0,0,0-1,1.28,14,14,0,0,0-.75,1.26c-.16.34-.2.56-.12.64q.51.49,4.16-1.68a44.62,44.62,0,0,0,9.29-6.9,8.81,8.81,0,0,1,1.51-1.15c1-.1,1.52.11,1.52.61q0,.51-3.13,3.44-4.89,5.1-5.88,7c-.91,1.87-1.07,3.09-.47,3.67s1.81.62,3.92.35a29.8,29.8,0,0,0,8.06-2.91A26.28,26.28,0,0,0,454.6,44,4.1,4.1,0,0,0,456,41.06a.11.11,0,0,1,.12-.12c.68,0,.89.33.64,1a9.55,9.55,0,0,1-3,3.69,28.53,28.53,0,0,1-7.29,4.24A27.86,27.86,0,0,1,439,52.2Z"/></g></g></svg>