<?xml version="1.0" encoding="UTF-8"?>
<svg id="_Слой_2" data-name="Слой 2" xmlns="http://www.w3.org/2000/svg" viewBox="0 0 280.17 49.73">
  <defs>
    <style>
      .cls-1 {
        fill: #be489a;
      }
    </style>
  </defs>
  <g id="Layer_1" data-name="Layer 1">
    <g>
      <path class="cls-1" d="M28.02,49.73c-4.02,0-7.73-.51-11.14-1.52-3.41-1.02-6.38-2.55-8.89-4.61-2.52-2.06-4.48-4.63-5.88-7.73-1.4-3.1-2.11-6.73-2.11-10.89s.7-7.8,2.11-10.93c1.4-3.12,3.36-5.71,5.88-7.77S13.47,2.69,16.88,1.67C20.29,.65,24.01,.15,28.02,.15s7.73,.51,11.14,1.52c3.41,1.02,6.38,2.55,8.89,4.61s4.48,4.65,5.88,7.77c1.4,3.12,2.11,6.77,2.11,10.93s-.7,7.79-2.11,10.89c-1.4,3.1-3.36,5.67-5.88,7.73-2.52,2.06-5.48,3.59-8.89,4.61-3.41,1.02-7.13,1.52-11.14,1.52Zm0-34.92c-1.79,0-3.11,.93-3.96,2.79-.85,1.86-1.27,4.32-1.27,7.37s.42,5.52,1.27,7.4c.85,1.89,2.17,2.83,3.96,2.83s3.11-.94,3.96-2.83c.85-1.89,1.27-4.36,1.27-7.4s-.42-5.51-1.27-7.37c-.85-1.86-2.17-2.79-3.96-2.79Z"/>
      <path class="cls-1" d="M93,.36c11.33,0,16.99,7,16.99,20.98v27.66h-22.8V24.03c0-3-.27-5.11-.8-6.31-.53-1.21-1.36-1.82-2.47-1.82-.82,0-1.5,.3-2.03,.91-.53,.61-.94,1.27-1.23,2-.34,.87-.58,1.81-.73,2.83v27.37h-21.71V1.09h18.95V14.45h1.09c0-4.5,1.27-7.97,3.81-10.42,2.54-2.45,6.18-3.67,10.93-3.67Z"/>
      <path class="cls-1" d="M134.31,49.01h-21.71V1.09h18.95V14.38h1.09c0-4.7,1.55-8.27,4.65-10.71,3.1-2.44,7.53-3.67,13.29-3.67,6.34,0,11.05,1.49,14.12,4.47,3.07,2.98,4.61,7.08,4.61,12.3,0,2.9-.56,5.58-1.67,8.02-1.11,2.44-2.86,4.55-5.23,6.32-2.37,1.77-5.41,3.15-9.11,4.14s-8.14,1.49-13.32,1.49h-5.66v12.27Zm8.2-34.71c-1.26,0-2.41,.3-3.45,.91s-1.9,1.27-2.58,2c-.87,.87-1.6,1.84-2.18,2.9v2.25h3.27c1.74,0,3.18-.13,4.32-.4,1.14-.27,2.04-.63,2.72-1.09,.68-.46,1.16-.98,1.45-1.56s.44-1.16,.44-1.74c0-1.16-.36-2-1.09-2.5-.73-.51-1.7-.76-2.9-.76Z"/>
      <path class="cls-1" d="M198.06,49.73c-4.02,0-7.73-.51-11.14-1.52-3.41-1.02-6.38-2.55-8.89-4.61-2.52-2.06-4.48-4.63-5.88-7.73-1.4-3.1-2.11-6.73-2.11-10.89s.7-7.8,2.11-10.93c1.4-3.12,3.36-5.71,5.88-7.77s5.48-3.59,8.89-4.61c3.41-1.02,7.13-1.52,11.14-1.52s7.73,.51,11.14,1.52c3.41,1.02,6.38,2.55,8.89,4.61s4.48,4.65,5.88,7.77c1.4,3.12,2.11,6.77,2.11,10.93s-.7,7.79-2.11,10.89c-1.4,3.1-3.36,5.67-5.88,7.73-2.52,2.06-5.48,3.59-8.89,4.61-3.41,1.02-7.13,1.52-11.14,1.52Zm0-34.92c-1.79,0-3.11,.93-3.96,2.79-.85,1.86-1.27,4.32-1.27,7.37s.42,5.52,1.27,7.4c.85,1.89,2.17,2.83,3.96,2.83s3.11-.94,3.96-2.83c.85-1.89,1.27-4.36,1.27-7.4s-.42-5.51-1.27-7.37c-.85-1.86-2.17-2.79-3.96-2.79Z"/>
      <path class="cls-1" d="M253.6,49.73c-4.31,0-8.08-.57-11.33-1.71-3.24-1.14-5.95-2.79-8.13-4.97-2.18-2.18-3.82-4.83-4.94-7.95-1.11-3.12-1.67-6.67-1.67-10.63s.5-7.38,1.49-10.38c.99-3,2.38-5.52,4.17-7.55,1.79-2.03,3.93-3.57,6.43-4.61,2.49-1.04,5.26-1.56,8.31-1.56,2.86,0,5.28,.29,7.26,.87,1.98,.58,3.6,1.49,4.86,2.72,1.26,1.23,2.17,2.8,2.72,4.68,.56,1.89,.83,4.14,.83,6.75h1.09V1.09h14.3V19.46h-15.39c-.29-.97-.73-1.84-1.31-2.62-.53-.68-1.22-1.28-2.07-1.81-.85-.53-1.97-.8-3.38-.8-2.42,0-4.12,1.01-5.08,3.01-.97,2.01-1.45,4.59-1.45,7.73s.45,5.72,1.34,7.73c.9,2.01,2.33,3.01,4.32,3.01,2.28,0,3.87-.97,4.79-2.9,.92-1.94,1.38-4.55,1.38-7.84h18c0,4.26-.63,7.94-1.89,11.04-1.26,3.1-3.05,5.66-5.37,7.7s-5.12,3.55-8.39,4.54c-3.27,.99-6.91,1.49-10.93,1.49Z"/>
    </g>
  </g>
</svg>